<?xml version="1.0" encoding="UTF-8" standalone="no"?><svg xmlns="http://www.w3.org/2000/svg" xmlns:xlink="http://www.w3.org/1999/xlink" clip-rule="evenodd" stroke-miterlimit="10" viewBox="0 0 1920 1080"><desc>SVG generated by Keynote</desc><defs></defs><g transform="matrix(1.00, 0.00, -0.00, -1.00, 0.0, 1080.0)"><g><clipPath id="clip0x600000ebd280"><path d="M 0.0 1080.0 L 1920.0 1080.0 L 1920.0 0.0 L 0.0 0.0 Z M 0.0 1080.0 "></path></clipPath><g clip-path="url(#clip0x600000ebd280)"><image xlink:href="../../D5727BE2-F369-4C75-81CE-5937ECEBC72D/assets/73FF40802D6D8C56B1DC83BECE6F24F8.jpeg" width="3840.00" height="2160.00" transform="matrix(0.50, 0.00, -0.00, -0.50, 0.0, 1080.0)"></image></g></g><text xml:space="preserve" font-family="GillSans-Light,Gill Sans" font-size="100.0" fill="#535353" transform="matrix(1.00, 0.00, -0.00, -1.00, 472.5, 883.9)">W</text><text xml:space="preserve" font-family="GillSans-Light,Gill Sans" font-size="100.0" fill="#535353" transform="matrix(1.00, 0.00, -0.00, -1.00, 575.6, 883.9)">h</text><text xml:space="preserve" font-family="GillSans-Light,Gill Sans" font-size="100.0" fill="#535353" transform="matrix(1.00, 0.00, -0.00, -1.00, 624.6, 883.9)">a</text><text xml:space="preserve" font-family="GillSans-Light,Gill Sans" font-size="100.0" fill="#535353" transform="matrix(1.00, 0.00, -0.00, -1.00, 667.3, 883.9)">t</text><text xml:space="preserve" font-family="GillSans-Light,Gill Sans" font-size="100.0" fill="#535353" transform="matrix(1.00, 0.00, -0.00, -1.00, 697.4, 883.9)"> </text><text xml:space="preserve" font-family="GillSans-Light,Gill Sans" font-size="100.0" fill="#535353" transform="matrix(1.00, 0.00, -0.00, -1.00, 725.2, 883.9)">i</text><text xml:space="preserve" font-family="GillSans-Light,Gill Sans" font-size="100.0" fill="#535353" transform="matrix(1.00, 0.00, -0.00, -1.00, 744.0, 883.9)">s</text><text xml:space="preserve" font-family="GillSans-Light,Gill Sans" font-size="100.0" fill="#535353" transform="matrix(1.00, 0.00, -0.00, -1.00, 779.4, 883.9)"> </text><text xml:space="preserve" font-family="GillSans-Light,Gill Sans" font-size="100.0" fill="#535353" transform="matrix(1.00, 0.00, -0.00, -1.00, 807.2, 883.9)">a</text><text xml:space="preserve" font-family="GillSans-Light,Gill Sans" font-size="100.0" fill="#535353" transform="matrix(1.00, 0.00, -0.00, -1.00, 849.8, 883.9)"> </text><text xml:space="preserve" font-family="GillSans-Light,Gill Sans" font-size="100.0" fill="#535353" transform="matrix(1.00, 0.00, -0.00, -1.00, 877.6, 883.9)">R</text><text xml:space="preserve" font-family="GillSans-Light,Gill Sans" font-size="100.0" fill="#535353" transform="matrix(1.00, 0.00, -0.00, -1.00, 934.9, 883.9)">i</text><text xml:space="preserve" font-family="GillSans-Light,Gill Sans" font-size="100.0" fill="#535353" transform="matrix(1.00, 0.00, -0.00, -1.00, 953.7, 883.9)">e</text><text xml:space="preserve" font-family="GillSans-Light,Gill Sans" font-size="100.0" fill="#535353" transform="matrix(1.00, 0.00, -0.00, -1.00, 1001.6, 883.9)">m</text><text xml:space="preserve" font-family="GillSans-Light,Gill Sans" font-size="100.0" fill="#535353" transform="matrix(1.00, 0.00, -0.00, -1.00, 1078.7, 883.9)">a</text><text xml:space="preserve" font-family="GillSans-Light,Gill Sans" font-size="100.0" fill="#535353" transform="matrix(1.00, 0.00, -0.00, -1.00, 1121.4, 883.9)">n</text><text xml:space="preserve" font-family="GillSans-Light,Gill Sans" font-size="100.0" fill="#535353" transform="matrix(1.00, 0.00, -0.00, -1.00, 1170.4, 883.9)">n</text><text xml:space="preserve" font-family="GillSans-Light,Gill Sans" font-size="100.0" fill="#535353" transform="matrix(1.00, 0.00, -0.00, -1.00, 1219.5, 883.9)"> </text><text xml:space="preserve" font-family="GillSans-Light,Gill Sans" font-size="100.0" fill="#535353" transform="matrix(1.00, 0.00, -0.00, -1.00, 1247.2, 883.9)">S</text><text xml:space="preserve" font-family="GillSans-Light,Gill Sans" font-size="100.0" fill="#535353" transform="matrix(1.00, 0.00, -0.00, -1.00, 1294.2, 883.9)">u</text><text xml:space="preserve" font-family="GillSans-Light,Gill Sans" font-size="100.0" fill="#535353" transform="matrix(1.00, 0.00, -0.00, -1.00, 1343.2, 883.9)">m</text><text xml:space="preserve" font-family="GillSans-Light,Gill Sans" font-size="100.0" fill="#535353" transform="matrix(1.00, 0.00, -0.00, -1.00, 1420.3, 883.9)">?</text><text xml:space="preserve" font-family="GillSans-Light,Gill Sans" font-size="64.0" fill="#535353" transform="matrix(1.00, 0.00, -0.00, -1.00, 53.0, 603.2)">•</text><text xml:space="preserve" font-family="GillSans-Light,Gill Sans" font-size="64.0" fill="#535353" transform="matrix(1.00, 0.00, -0.00, -1.00, 103.5, 603.2)">N</text><text xml:space="preserve" font-family="GillSans-Light,Gill Sans" font-size="64.0" fill="#535353" transform="matrix(1.00, 0.00, -0.00, -1.00, 152.9, 603.2)">u</text><text xml:space="preserve" font-family="GillSans-Light,Gill Sans" font-size="64.0" fill="#535353" transform="matrix(1.00, 0.00, -0.00, -1.00, 184.3, 603.2)">m</text><text xml:space="preserve" font-family="GillSans-Light,Gill Sans" font-size="64.0" fill="#535353" transform="matrix(1.00, 0.00, -0.00, -1.00, 233.6, 603.2)">e</text><text xml:space="preserve" font-family="GillSans-Light,Gill Sans" font-size="64.0" fill="#535353" transform="matrix(1.00, 0.00, -0.00, -1.00, 264.3, 603.2)">r</text><text xml:space="preserve" font-family="GillSans-Light,Gill Sans" font-size="64.0" fill="#535353" transform="matrix(1.00, 0.00, -0.00, -1.00, 287.2, 603.2)">i</text><text xml:space="preserve" font-family="GillSans-Light,Gill Sans" font-size="64.0" fill="#535353" transform="matrix(1.00, 0.00, -0.00, -1.00, 299.2, 603.2)">c</text><text xml:space="preserve" font-family="GillSans-Light,Gill Sans" font-size="64.0" fill="#535353" transform="matrix(1.00, 0.00, -0.00, -1.00, 325.9, 603.2)">a</text><text xml:space="preserve" font-family="GillSans-Light,Gill Sans" font-size="64.0" fill="#535353" transform="matrix(1.00, 0.00, -0.00, -1.00, 353.2, 603.2)">l</text><text xml:space="preserve" font-family="GillSans-Light,Gill Sans" font-size="64.0" fill="#535353" transform="matrix(1.00, 0.00, -0.00, -1.00, 365.2, 603.2)"> </text><text xml:space="preserve" font-family="GillSans-Light,Gill Sans" font-size="64.0" fill="#535353" transform="matrix(1.00, 0.00, -0.00, -1.00, 383.0, 603.2)">m</text><text xml:space="preserve" font-family="GillSans-Light,Gill Sans" font-size="64.0" fill="#535353" transform="matrix(1.00, 0.00, -0.00, -1.00, 432.3, 603.2)">e</text><text xml:space="preserve" font-family="GillSans-Light,Gill Sans" font-size="64.0" fill="#535353" transform="matrix(1.00, 0.00, -0.00, -1.00, 463.0, 603.2)">t</text><text xml:space="preserve" font-family="GillSans-Light,Gill Sans" font-size="64.0" fill="#535353" transform="matrix(1.00, 0.00, -0.00, -1.00, 482.3, 603.2)">h</text><text xml:space="preserve" font-family="GillSans-Light,Gill Sans" font-size="64.0" fill="#535353" transform="matrix(1.00, 0.00, -0.00, -1.00, 513.7, 603.2)">o</text><text xml:space="preserve" font-family="GillSans-Light,Gill Sans" font-size="64.0" fill="#535353" transform="matrix(1.00, 0.00, -0.00, -1.00, 548.4, 603.2)">d</text><text xml:space="preserve" font-family="GillSans-Light,Gill Sans" font-size="64.0" fill="#535353" transform="matrix(1.00, 0.00, -0.00, -1.00, 581.0, 603.2)"> </text><text xml:space="preserve" font-family="GillSans-Light,Gill Sans" font-size="64.0" fill="#535353" transform="matrix(1.00, 0.00, -0.00, -1.00, 598.7, 603.2)">f</text><text xml:space="preserve" font-family="GillSans-Light,Gill Sans" font-size="64.0" fill="#535353" transform="matrix(1.00, 0.00, -0.00, -1.00, 613.5, 603.2)">o</text><text xml:space="preserve" font-family="GillSans-Light,Gill Sans" font-size="64.0" fill="#535353" transform="matrix(1.00, 0.00, -0.00, -1.00, 648.2, 603.2)">r</text><text xml:space="preserve" font-family="GillSans-Light,Gill Sans" font-size="64.0" fill="#535353" transform="matrix(1.00, 0.00, -0.00, -1.00, 669.5, 603.2)"> </text><text xml:space="preserve" font-family="GillSans-Light,Gill Sans" font-size="64.0" fill="#535353" transform="matrix(1.00, 0.00, -0.00, -1.00, 687.3, 603.2)">a</text><text xml:space="preserve" font-family="GillSans-Light,Gill Sans" font-size="64.0" fill="#535353" transform="matrix(1.00, 0.00, -0.00, -1.00, 714.6, 603.2)">p</text><text xml:space="preserve" font-family="GillSans-Light,Gill Sans" font-size="64.0" fill="#535353" transform="matrix(1.00, 0.00, -0.00, -1.00, 747.2, 603.2)">p</text><text xml:space="preserve" font-family="GillSans-Light,Gill Sans" font-size="64.0" fill="#535353" transform="matrix(1.00, 0.00, -0.00, -1.00, 779.8, 603.2)">r</text><text xml:space="preserve" font-family="GillSans-Light,Gill Sans" font-size="64.0" fill="#535353" transform="matrix(1.00, 0.00, -0.00, -1.00, 801.1, 603.2)">o</text><text xml:space="preserve" font-family="GillSans-Light,Gill Sans" font-size="64.0" fill="#535353" transform="matrix(1.00, 0.00, -0.00, -1.00, 834.5, 603.2)">x</text><text xml:space="preserve" font-family="GillSans-Light,Gill Sans" font-size="64.0" fill="#535353" transform="matrix(1.00, 0.00, -0.00, -1.00, 865.2, 603.2)">i</text><text xml:space="preserve" font-family="GillSans-Light,Gill Sans" font-size="64.0" fill="#535353" transform="matrix(1.00, 0.00, -0.00, -1.00, 877.2, 603.2)">m</text><text xml:space="preserve" font-family="GillSans-Light,Gill Sans" font-size="64.0" fill="#535353" transform="matrix(1.00, 0.00, -0.00, -1.00, 926.5, 603.2)">a</text><text xml:space="preserve" font-family="GillSans-Light,Gill Sans" font-size="64.0" fill="#535353" transform="matrix(1.00, 0.00, -0.00, -1.00, 953.8, 603.2)">t</text><text xml:space="preserve" font-family="GillSans-Light,Gill Sans" font-size="64.0" fill="#535353" transform="matrix(1.00, 0.00, -0.00, -1.00, 973.1, 603.2)">i</text><text xml:space="preserve" font-family="GillSans-Light,Gill Sans" font-size="64.0" fill="#535353" transform="matrix(1.00, 0.00, -0.00, -1.00, 985.2, 603.2)">n</text><text xml:space="preserve" font-family="GillSans-Light,Gill Sans" font-size="64.0" fill="#535353" transform="matrix(1.00, 0.00, -0.00, -1.00, 1016.6, 603.2)">g</text><text xml:space="preserve" font-family="GillSans-Light,Gill Sans" font-size="64.0" fill="#535353" transform="matrix(1.00, 0.00, -0.00, -1.00, 1043.9, 603.2)"> </text><text xml:space="preserve" font-family="GillSans-Light,Gill Sans" font-size="64.0" fill="#535353" transform="matrix(1.00, 0.00, -0.00, -1.00, 1061.6, 603.2)">i</text><text xml:space="preserve" font-family="GillSans-Light,Gill Sans" font-size="64.0" fill="#535353" transform="matrix(1.00, 0.00, -0.00, -1.00, 1073.7, 603.2)">n</text><text xml:space="preserve" font-family="GillSans-Light,Gill Sans" font-size="64.0" fill="#535353" transform="matrix(1.00, 0.00, -0.00, -1.00, 1105.1, 603.2)">t</text><text xml:space="preserve" font-family="GillSans-Light,Gill Sans" font-size="64.0" fill="#535353" transform="matrix(1.00, 0.00, -0.00, -1.00, 1124.4, 603.2)">e</text><text xml:space="preserve" font-family="GillSans-Light,Gill Sans" font-size="64.0" fill="#535353" transform="matrix(1.00, 0.00, -0.00, -1.00, 1155.0, 603.2)">g</text><text xml:space="preserve" font-family="GillSans-Light,Gill Sans" font-size="64.0" fill="#535353" transform="matrix(1.00, 0.00, -0.00, -1.00, 1182.3, 603.2)">r</text><text xml:space="preserve" font-family="GillSans-Light,Gill Sans" font-size="64.0" fill="#535353" transform="matrix(1.00, 0.00, -0.00, -1.00, 1205.2, 603.2)">a</text><text xml:space="preserve" font-family="GillSans-Light,Gill Sans" font-size="64.0" fill="#535353" transform="matrix(1.00, 0.00, -0.00, -1.00, 1232.5, 603.2)">l</text><text xml:space="preserve" font-family="GillSans-Light,Gill Sans" font-size="64.0" fill="#535353" transform="matrix(1.00, 0.00, -0.00, -1.00, 1244.5, 603.2)">s</text><text xml:space="preserve" font-family="GillSans-Light,Gill Sans" font-size="64.0" fill="#535353" transform="matrix(1.00, 0.00, -0.00, -1.00, 53.0, 451.8)">•</text><text xml:space="preserve" font-family="GillSans-Light,Gill Sans" font-size="64.0" fill="#535353" transform="matrix(1.00, 0.00, -0.00, -1.00, 103.5, 451.8)">F</text><text xml:space="preserve" font-family="GillSans-Light,Gill Sans" font-size="64.0" fill="#535353" transform="matrix(1.00, 0.00, -0.00, -1.00, 131.6, 451.8)">o</text><text xml:space="preserve" font-family="GillSans-Light,Gill Sans" font-size="64.0" fill="#535353" transform="matrix(1.00, 0.00, -0.00, -1.00, 166.2, 451.8)">u</text><text xml:space="preserve" font-family="GillSans-Light,Gill Sans" font-size="64.0" fill="#535353" transform="matrix(1.00, 0.00, -0.00, -1.00, 197.6, 451.8)">n</text><text xml:space="preserve" font-family="GillSans-Light,Gill Sans" font-size="64.0" fill="#535353" transform="matrix(1.00, 0.00, -0.00, -1.00, 229.0, 451.8)">d</text><text xml:space="preserve" font-family="GillSans-Light,Gill Sans" font-size="64.0" fill="#535353" transform="matrix(1.00, 0.00, -0.00, -1.00, 261.6, 451.8)"> </text><text xml:space="preserve" font-family="GillSans-Light,Gill Sans" font-size="64.0" fill="#535353" transform="matrix(1.00, 0.00, -0.00, -1.00, 279.4, 451.8)">b</text><text xml:space="preserve" font-family="GillSans-Light,Gill Sans" font-size="64.0" fill="#535353" transform="matrix(1.00, 0.00, -0.00, -1.00, 311.0, 451.8)">y</text><text xml:space="preserve" font-family="GillSans-Light,Gill Sans" font-size="64.0" fill="#535353" transform="matrix(1.00, 0.00, -0.00, -1.00, 337.7, 451.8)"> </text><text xml:space="preserve" font-family="GillSans-Light,Gill Sans" font-size="64.0" fill="#535353" transform="matrix(1.00, 0.00, -0.00, -1.00, 355.5, 451.8)">s</text><text xml:space="preserve" font-family="GillSans-Light,Gill Sans" font-size="64.0" fill="#535353" transform="matrix(1.00, 0.00, -0.00, -1.00, 378.2, 451.8)">u</text><text xml:space="preserve" font-family="GillSans-Light,Gill Sans" font-size="64.0" fill="#535353" transform="matrix(1.00, 0.00, -0.00, -1.00, 409.5, 451.8)">m</text><text xml:space="preserve" font-family="GillSans-Light,Gill Sans" font-size="64.0" fill="#535353" transform="matrix(1.00, 0.00, -0.00, -1.00, 458.9, 451.8)">m</text><text xml:space="preserve" font-family="GillSans-Light,Gill Sans" font-size="64.0" fill="#535353" transform="matrix(1.00, 0.00, -0.00, -1.00, 508.2, 451.8)">i</text><text xml:space="preserve" font-family="GillSans-Light,Gill Sans" font-size="64.0" fill="#535353" transform="matrix(1.00, 0.00, -0.00, -1.00, 520.3, 451.8)">n</text><text xml:space="preserve" font-family="GillSans-Light,Gill Sans" font-size="64.0" fill="#535353" transform="matrix(1.00, 0.00, -0.00, -1.00, 551.6, 451.8)">g</text><text xml:space="preserve" font-family="GillSans-Light,Gill Sans" font-size="64.0" fill="#535353" transform="matrix(1.00, 0.00, -0.00, -1.00, 578.9, 451.8)"> </text><text xml:space="preserve" font-family="GillSans-Light,Gill Sans" font-size="64.0" fill="#535353" transform="matrix(1.00, 0.00, -0.00, -1.00, 596.7, 451.8)">t</text><text xml:space="preserve" font-family="GillSans-Light,Gill Sans" font-size="64.0" fill="#535353" transform="matrix(1.00, 0.00, -0.00, -1.00, 616.0, 451.8)">h</text><text xml:space="preserve" font-family="GillSans-Light,Gill Sans" font-size="64.0" fill="#535353" transform="matrix(1.00, 0.00, -0.00, -1.00, 647.4, 451.8)">e</text><text xml:space="preserve" font-family="GillSans-Light,Gill Sans" font-size="64.0" fill="#535353" transform="matrix(1.00, 0.00, -0.00, -1.00, 678.1, 451.8)"> </text><text xml:space="preserve" font-family="GillSans-Light,Gill Sans" font-size="64.0" fill="#535353" transform="matrix(1.00, 0.00, -0.00, -1.00, 695.8, 451.8)">a</text><text xml:space="preserve" font-family="GillSans-Light,Gill Sans" font-size="64.0" fill="#535353" transform="matrix(1.00, 0.00, -0.00, -1.00, 723.1, 451.8)">r</text><text xml:space="preserve" font-family="GillSans-Light,Gill Sans" font-size="64.0" fill="#535353" transform="matrix(1.00, 0.00, -0.00, -1.00, 744.4, 451.8)">e</text><text xml:space="preserve" font-family="GillSans-Light,Gill Sans" font-size="64.0" fill="#535353" transform="matrix(1.00, 0.00, -0.00, -1.00, 775.1, 451.8)">a</text><text xml:space="preserve" font-family="GillSans-Light,Gill Sans" font-size="64.0" fill="#535353" transform="matrix(1.00, 0.00, -0.00, -1.00, 802.4, 451.8)"> </text><text xml:space="preserve" font-family="GillSans-Light,Gill Sans" font-size="64.0" fill="#535353" transform="matrix(1.00, 0.00, -0.00, -1.00, 820.2, 451.8)">o</text><text xml:space="preserve" font-family="GillSans-Light,Gill Sans" font-size="64.0" fill="#535353" transform="matrix(1.00, 0.00, -0.00, -1.00, 854.9, 451.8)">f</text><text xml:space="preserve" font-family="GillSans-Light,Gill Sans" font-size="64.0" fill="#535353" transform="matrix(1.00, 0.00, -0.00, -1.00, 870.2, 451.8)"> </text><text xml:space="preserve" font-family="GillSans-Light,Gill Sans" font-size="64.0" fill="#535353" transform="matrix(1.00, 0.00, -0.00, -1.00, 888.0, 451.8)">N</text><text xml:space="preserve" font-family="GillSans-Light,Gill Sans" font-size="64.0" fill="#535353" transform="matrix(1.00, 0.00, -0.00, -1.00, 937.4, 451.8)"> </text><text xml:space="preserve" font-family="GillSans-Light,Gill Sans" font-size="64.0" fill="#535353" transform="matrix(1.00, 0.00, -0.00, -1.00, 955.1, 451.8)">r</text><text xml:space="preserve" font-family="GillSans-Light,Gill Sans" font-size="64.0" fill="#535353" transform="matrix(1.00, 0.00, -0.00, -1.00, 976.4, 451.8)">e</text><text xml:space="preserve" font-family="GillSans-Light,Gill Sans" font-size="64.0" fill="#535353" transform="matrix(1.00, 0.00, -0.00, -1.00, 1007.1, 451.8)">c</text><text xml:space="preserve" font-family="GillSans-Light,Gill Sans" font-size="64.0" fill="#535353" transform="matrix(1.00, 0.00, -0.00, -1.00, 1033.8, 451.8)">t</text><text xml:space="preserve" font-family="GillSans-Light,Gill Sans" font-size="64.0" fill="#535353" transform="matrix(1.00, 0.00, -0.00, -1.00, 1053.1, 451.8)">a</text><text xml:space="preserve" font-family="GillSans-Light,Gill Sans" font-size="64.0" fill="#535353" transform="matrix(1.00, 0.00, -0.00, -1.00, 1080.4, 451.8)">n</text><text xml:space="preserve" font-family="GillSans-Light,Gill Sans" font-size="64.0" fill="#535353" transform="matrix(1.00, 0.00, -0.00, -1.00, 1111.8, 451.8)">g</text><text xml:space="preserve" font-family="GillSans-Light,Gill Sans" font-size="64.0" fill="#535353" transform="matrix(1.00, 0.00, -0.00, -1.00, 1139.1, 451.8)">l</text><text xml:space="preserve" font-family="GillSans-Light,Gill Sans" font-size="64.0" fill="#535353" transform="matrix(1.00, 0.00, -0.00, -1.00, 1151.1, 451.8)">e</text><text xml:space="preserve" font-family="GillSans-Light,Gill Sans" font-size="64.0" fill="#535353" transform="matrix(1.00, 0.00, -0.00, -1.00, 1181.8, 451.8)">s</text><text xml:space="preserve" font-family="GillSans-Light,Gill Sans" font-size="64.0" fill="#535353" transform="matrix(1.00, 0.00, -0.00, -1.00, 1204.4, 451.8)"> </text><text xml:space="preserve" font-family="GillSans-Light,Gill Sans" font-size="64.0" fill="#535353" transform="matrix(1.00, 0.00, -0.00, -1.00, 1222.2, 451.8)">o</text><text xml:space="preserve" font-family="GillSans-Light,Gill Sans" font-size="64.0" fill="#535353" transform="matrix(1.00, 0.00, -0.00, -1.00, 1256.9, 451.8)">r</text><text xml:space="preserve" font-family="GillSans-Light,Gill Sans" font-size="64.0" fill="#535353" transform="matrix(1.00, 0.00, -0.00, -1.00, 1278.2, 451.8)"> </text><text xml:space="preserve" font-family="GillSans-Light,Gill Sans" font-size="64.0" fill="#535353" transform="matrix(1.00, 0.00, -0.00, -1.00, 1295.9, 451.8)">t</text><text xml:space="preserve" font-family="GillSans-Light,Gill Sans" font-size="64.0" fill="#535353" transform="matrix(1.00, 0.00, -0.00, -1.00, 1315.2, 451.8)">r</text><text xml:space="preserve" font-family="GillSans-Light,Gill Sans" font-size="64.0" fill="#535353" transform="matrix(1.00, 0.00, -0.00, -1.00, 1338.1, 451.8)">a</text><text xml:space="preserve" font-family="GillSans-Light,Gill Sans" font-size="64.0" fill="#535353" transform="matrix(1.00, 0.00, -0.00, -1.00, 1365.4, 451.8)">p</text><text xml:space="preserve" font-family="GillSans-Light,Gill Sans" font-size="64.0" fill="#535353" transform="matrix(1.00, 0.00, -0.00, -1.00, 1398.1, 451.8)">e</text><text xml:space="preserve" font-family="GillSans-Light,Gill Sans" font-size="64.0" fill="#535353" transform="matrix(1.00, 0.00, -0.00, -1.00, 1428.7, 451.8)">z</text><text xml:space="preserve" font-family="GillSans-Light,Gill Sans" font-size="64.0" fill="#535353" transform="matrix(1.00, 0.00, -0.00, -1.00, 1453.1, 451.8)">o</text><text xml:space="preserve" font-family="GillSans-Light,Gill Sans" font-size="64.0" fill="#535353" transform="matrix(1.00, 0.00, -0.00, -1.00, 1487.8, 451.8)">i</text><text xml:space="preserve" font-family="GillSans-Light,Gill Sans" font-size="64.0" fill="#535353" transform="matrix(1.00, 0.00, -0.00, -1.00, 1499.8, 451.8)">d</text><text xml:space="preserve" font-family="GillSans-Light,Gill Sans" font-size="64.0" fill="#535353" transform="matrix(1.00, 0.00, -0.00, -1.00, 1532.4, 451.8)">s</text><text xml:space="preserve" font-family="GillSans-Light,Gill Sans" font-size="64.0" fill="#535353" transform="matrix(1.00, 0.00, -0.00, -1.00, 1555.1, 451.8)"> </text><text xml:space="preserve" font-family="GillSans-Light,Gill Sans" font-size="64.0" fill="#535353" transform="matrix(1.00, 0.00, -0.00, -1.00, 1572.9, 451.8)">b</text><text xml:space="preserve" font-family="GillSans-Light,Gill Sans" font-size="64.0" fill="#535353" transform="matrix(1.00, 0.00, -0.00, -1.00, 1605.5, 451.8)">e</text><text xml:space="preserve" font-family="GillSans-Light,Gill Sans" font-size="64.0" fill="#535353" transform="matrix(1.00, 0.00, -0.00, -1.00, 1636.1, 451.8)">l</text><text xml:space="preserve" font-family="GillSans-Light,Gill Sans" font-size="64.0" fill="#535353" transform="matrix(1.00, 0.00, -0.00, -1.00, 1648.2, 451.8)">o</text><text xml:space="preserve" font-family="GillSans-Light,Gill Sans" font-size="64.0" fill="#535353" transform="matrix(1.00, 0.00, -0.00, -1.00, 1681.9, 451.8)">w</text><text xml:space="preserve" font-family="GillSans-Light,Gill Sans" font-size="64.0" fill="#535353" transform="matrix(1.00, 0.00, -0.00, -1.00, 1727.2, 451.8)"> </text><text xml:space="preserve" font-family="GillSans-Light,Gill Sans" font-size="64.0" fill="#535353" transform="matrix(1.00, 0.00, -0.00, -1.00, 1745.0, 451.8)"> </text><text xml:space="preserve" font-family="GillSans-Light,Gill Sans" font-size="64.0" fill="#535353" transform="matrix(1.00, 0.00, -0.00, -1.00, 1762.7, 451.8)"> </text><text xml:space="preserve" font-family="GillSans-Light,Gill Sans" font-size="64.0" fill="#535353" transform="matrix(1.00, 0.00, -0.00, -1.00, 1780.5, 451.8)"> </text><text xml:space="preserve" font-family="GillSans-Light,Gill Sans" font-size="64.0" fill="#535353" transform="matrix(1.00, 0.00, -0.00, -1.00, 1798.3, 451.8)"> </text><text xml:space="preserve" font-family="GillSans-Light,Gill Sans" font-size="64.0" fill="#535353" transform="matrix(1.00, 0.00, -0.00, -1.00, 1816.0, 451.8)"> </text><text xml:space="preserve" font-family="GillSans-Light,Gill Sans" font-size="64.0" fill="#535353" transform="matrix(1.00, 0.00, -0.00, -1.00, 1833.8, 451.8)"> </text><text xml:space="preserve" font-family="GillSans-Light,Gill Sans" font-size="64.0" fill="#535353" transform="matrix(1.00, 0.00, -0.00, -1.00, 103.5, 365.4)">a</text><text xml:space="preserve" font-family="GillSans-Light,Gill Sans" font-size="64.0" fill="#535353" transform="matrix(1.00, 0.00, -0.00, -1.00, 130.8, 365.4)"> </text><text xml:space="preserve" font-family="GillSans-Light,Gill Sans" font-size="64.0" fill="#535353" transform="matrix(1.00, 0.00, -0.00, -1.00, 148.6, 365.4)">f</text><text xml:space="preserve" font-family="GillSans-Light,Gill Sans" font-size="64.0" fill="#535353" transform="matrix(1.00, 0.00, -0.00, -1.00, 164.0, 365.4)">u</text><text xml:space="preserve" font-family="GillSans-Light,Gill Sans" font-size="64.0" fill="#535353" transform="matrix(1.00, 0.00, -0.00, -1.00, 195.4, 365.4)">n</text><text xml:space="preserve" font-family="GillSans-Light,Gill Sans" font-size="64.0" fill="#535353" transform="matrix(1.00, 0.00, -0.00, -1.00, 226.8, 365.4)">c</text><text xml:space="preserve" font-family="GillSans-Light,Gill Sans" font-size="64.0" fill="#535353" transform="matrix(1.00, 0.00, -0.00, -1.00, 253.4, 365.4)">t</text><text xml:space="preserve" font-family="GillSans-Light,Gill Sans" font-size="64.0" fill="#535353" transform="matrix(1.00, 0.00, -0.00, -1.00, 272.7, 365.4)">i</text><text xml:space="preserve" font-family="GillSans-Light,Gill Sans" font-size="64.0" fill="#535353" transform="matrix(1.00, 0.00, -0.00, -1.00, 284.8, 365.4)">o</text><text xml:space="preserve" font-family="GillSans-Light,Gill Sans" font-size="64.0" fill="#535353" transform="matrix(1.00, 0.00, -0.00, -1.00, 319.5, 365.4)">n</text><text xml:space="preserve" font-family="GillSans-Light,Gill Sans" font-size="64.0" fill="#535353" transform="matrix(1.00, 0.00, -0.00, -1.00, 53.0, 214.0)">•</text><text xml:space="preserve" font-family="GillSans-Light,Gill Sans" font-size="64.0" fill="#535353" transform="matrix(1.00, 0.00, -0.00, -1.00, 103.5, 214.0)">F</text><text xml:space="preserve" font-family="GillSans-Light,Gill Sans" font-size="64.0" fill="#535353" transform="matrix(1.00, 0.00, -0.00, -1.00, 131.6, 214.0)">u</text><text xml:space="preserve" font-family="GillSans-Light,Gill Sans" font-size="64.0" fill="#535353" transform="matrix(1.00, 0.00, -0.00, -1.00, 162.9, 214.0)">n</text><text xml:space="preserve" font-family="GillSans-Light,Gill Sans" font-size="64.0" fill="#535353" transform="matrix(1.00, 0.00, -0.00, -1.00, 194.3, 214.0)">c</text><text xml:space="preserve" font-family="GillSans-Light,Gill Sans" font-size="64.0" fill="#535353" transform="matrix(1.00, 0.00, -0.00, -1.00, 221.0, 214.0)">t</text><text xml:space="preserve" font-family="GillSans-Light,Gill Sans" font-size="64.0" fill="#535353" transform="matrix(1.00, 0.00, -0.00, -1.00, 240.3, 214.0)">i</text><text xml:space="preserve" font-family="GillSans-Light,Gill Sans" font-size="64.0" fill="#535353" transform="matrix(1.00, 0.00, -0.00, -1.00, 252.4, 214.0)">o</text><text xml:space="preserve" font-family="GillSans-Light,Gill Sans" font-size="64.0" fill="#535353" transform="matrix(1.00, 0.00, -0.00, -1.00, 287.0, 214.0)">n</text><text xml:space="preserve" font-family="GillSans-Light,Gill Sans" font-size="64.0" fill="#535353" transform="matrix(1.00, 0.00, -0.00, -1.00, 318.4, 214.0)"> </text><text xml:space="preserve" font-family="GillSans-Light,Gill Sans" font-size="64.0" fill="#535353" transform="matrix(1.00, 0.00, -0.00, -1.00, 336.2, 214.0)">m</text><text xml:space="preserve" font-family="GillSans-Light,Gill Sans" font-size="64.0" fill="#535353" transform="matrix(1.00, 0.00, -0.00, -1.00, 384.6, 214.0)">u</text><text xml:space="preserve" font-family="GillSans-Light,Gill Sans" font-size="64.0" fill="#535353" transform="matrix(1.00, 0.00, -0.00, -1.00, 416.0, 214.0)">s</text><text xml:space="preserve" font-family="GillSans-Light,Gill Sans" font-size="64.0" fill="#535353" transform="matrix(1.00, 0.00, -0.00, -1.00, 438.6, 214.0)">t</text><text xml:space="preserve" font-family="GillSans-Light,Gill Sans" font-size="64.0" fill="#535353" transform="matrix(1.00, 0.00, -0.00, -1.00, 457.9, 214.0)"> </text><text xml:space="preserve" font-family="GillSans-Light,Gill Sans" font-size="64.0" fill="#535353" transform="matrix(1.00, 0.00, -0.00, -1.00, 475.7, 214.0)">b</text><text xml:space="preserve" font-family="GillSans-Light,Gill Sans" font-size="64.0" fill="#535353" transform="matrix(1.00, 0.00, -0.00, -1.00, 508.3, 214.0)">e</text><text xml:space="preserve" font-family="GillSans-Light,Gill Sans" font-size="64.0" fill="#535353" transform="matrix(1.00, 0.00, -0.00, -1.00, 539.0, 214.0)"> </text><text xml:space="preserve" font-family="GillSans-Light,Gill Sans" font-size="64.0" fill="#535353" transform="matrix(1.00, 0.00, -0.00, -1.00, 556.7, 214.0)">i</text><text xml:space="preserve" font-family="GillSans-Light,Gill Sans" font-size="64.0" fill="#535353" transform="matrix(1.00, 0.00, -0.00, -1.00, 568.8, 214.0)">n</text><text xml:space="preserve" font-family="GillSans-Light,Gill Sans" font-size="64.0" fill="#535353" transform="matrix(1.00, 0.00, -0.00, -1.00, 600.1, 214.0)">t</text><text xml:space="preserve" font-family="GillSans-Light,Gill Sans" font-size="64.0" fill="#535353" transform="matrix(1.00, 0.00, -0.00, -1.00, 619.4, 214.0)">e</text><text xml:space="preserve" font-family="GillSans-Light,Gill Sans" font-size="64.0" fill="#535353" transform="matrix(1.00, 0.00, -0.00, -1.00, 650.1, 214.0)">g</text><text xml:space="preserve" font-family="GillSans-Light,Gill Sans" font-size="64.0" fill="#535353" transform="matrix(1.00, 0.00, -0.00, -1.00, 677.4, 214.0)">r</text><text xml:space="preserve" font-family="GillSans-Light,Gill Sans" font-size="64.0" fill="#535353" transform="matrix(1.00, 0.00, -0.00, -1.00, 700.3, 214.0)">a</text><text xml:space="preserve" font-family="GillSans-Light,Gill Sans" font-size="64.0" fill="#535353" transform="matrix(1.00, 0.00, -0.00, -1.00, 727.6, 214.0)">b</text><text xml:space="preserve" font-family="GillSans-Light,Gill Sans" font-size="64.0" fill="#535353" transform="matrix(1.00, 0.00, -0.00, -1.00, 759.2, 214.0)">l</text><text xml:space="preserve" font-family="GillSans-Light,Gill Sans" font-size="64.0" fill="#535353" transform="matrix(1.00, 0.00, -0.00, -1.00, 771.3, 214.0)">e</text></g></svg>