<?xml version="1.0" encoding="UTF-8" standalone="no"?><svg xmlns="http://www.w3.org/2000/svg" xmlns:xlink="http://www.w3.org/1999/xlink" clip-rule="evenodd" stroke-miterlimit="10" viewBox="0 0 1522 75"><desc>SVG generated by Keynote</desc><defs></defs><g transform="matrix(1.00, 0.00, -0.00, -1.00, 0.0, 75.0)"><text xml:space="preserve" font-family="GillSans-Light,Gill Sans" font-size="64.0" fill="#535353" transform="matrix(1.00, 0.00, -0.00, -1.00, 0.5, 16.8)">•</text><text xml:space="preserve" font-family="GillSans-Light,Gill Sans" font-size="64.0" fill="#535353" transform="matrix(1.00, 0.00, -0.00, -1.00, 51.0, 16.8)">A</text><text xml:space="preserve" font-family="GillSans-Light,Gill Sans" font-size="64.0" fill="#535353" transform="matrix(1.00, 0.00, -0.00, -1.00, 93.7, 16.8)">n</text><text xml:space="preserve" font-family="GillSans-Light,Gill Sans" font-size="64.0" fill="#535353" transform="matrix(1.00, 0.00, -0.00, -1.00, 124.1, 16.8)">y</text><text xml:space="preserve" font-family="GillSans-Light,Gill Sans" font-size="64.0" fill="#535353" transform="matrix(1.00, 0.00, -0.00, -1.00, 150.8, 16.8)"> </text><text xml:space="preserve" font-family="GillSans-Light,Gill Sans" font-size="64.0" fill="#535353" transform="matrix(1.00, 0.00, -0.00, -1.00, 168.6, 16.8)">d</text><text xml:space="preserve" font-family="GillSans-Light,Gill Sans" font-size="64.0" fill="#535353" transform="matrix(1.00, 0.00, -0.00, -1.00, 201.2, 16.8)">e</text><text xml:space="preserve" font-family="GillSans-Light,Gill Sans" font-size="64.0" fill="#535353" transform="matrix(1.00, 0.00, -0.00, -1.00, 231.9, 16.8)">f</text><text xml:space="preserve" font-family="GillSans-Light,Gill Sans" font-size="64.0" fill="#535353" transform="matrix(1.00, 0.00, -0.00, -1.00, 246.0, 16.8)">i</text><text xml:space="preserve" font-family="GillSans-Light,Gill Sans" font-size="64.0" fill="#535353" transform="matrix(1.00, 0.00, -0.00, -1.00, 258.0, 16.8)">n</text><text xml:space="preserve" font-family="GillSans-Light,Gill Sans" font-size="64.0" fill="#535353" transform="matrix(1.00, 0.00, -0.00, -1.00, 289.4, 16.8)">i</text><text xml:space="preserve" font-family="GillSans-Light,Gill Sans" font-size="64.0" fill="#535353" transform="matrix(1.00, 0.00, -0.00, -1.00, 301.4, 16.8)">t</text><text xml:space="preserve" font-family="GillSans-Light,Gill Sans" font-size="64.0" fill="#535353" transform="matrix(1.00, 0.00, -0.00, -1.00, 320.7, 16.8)">e</text><text xml:space="preserve" font-family="GillSans-Light,Gill Sans" font-size="64.0" fill="#535353" transform="matrix(1.00, 0.00, -0.00, -1.00, 351.4, 16.8)"> </text><text xml:space="preserve" font-family="GillSans-Light,Gill Sans" font-size="64.0" fill="#535353" transform="matrix(1.00, 0.00, -0.00, -1.00, 369.1, 16.8)">i</text><text xml:space="preserve" font-family="GillSans-Light,Gill Sans" font-size="64.0" fill="#535353" transform="matrix(1.00, 0.00, -0.00, -1.00, 381.2, 16.8)">n</text><text xml:space="preserve" font-family="GillSans-Light,Gill Sans" font-size="64.0" fill="#535353" transform="matrix(1.00, 0.00, -0.00, -1.00, 412.6, 16.8)">t</text><text xml:space="preserve" font-family="GillSans-Light,Gill Sans" font-size="64.0" fill="#535353" transform="matrix(1.00, 0.00, -0.00, -1.00, 431.9, 16.8)">e</text><text xml:space="preserve" font-family="GillSans-Light,Gill Sans" font-size="64.0" fill="#535353" transform="matrix(1.00, 0.00, -0.00, -1.00, 462.5, 16.8)">g</text><text xml:space="preserve" font-family="GillSans-Light,Gill Sans" font-size="64.0" fill="#535353" transform="matrix(1.00, 0.00, -0.00, -1.00, 489.8, 16.8)">r</text><text xml:space="preserve" font-family="GillSans-Light,Gill Sans" font-size="64.0" fill="#535353" transform="matrix(1.00, 0.00, -0.00, -1.00, 512.7, 16.8)">a</text><text xml:space="preserve" font-family="GillSans-Light,Gill Sans" font-size="64.0" fill="#535353" transform="matrix(1.00, 0.00, -0.00, -1.00, 540.0, 16.8)">l</text><text xml:space="preserve" font-family="GillSans-Light,Gill Sans" font-size="64.0" fill="#535353" transform="matrix(1.00, 0.00, -0.00, -1.00, 552.1, 16.8)"> </text><text xml:space="preserve" font-family="GillSans-Light,Gill Sans" font-size="64.0" fill="#535353" transform="matrix(1.00, 0.00, -0.00, -1.00, 569.8, 16.8)">w</text><text xml:space="preserve" font-family="GillSans-Light,Gill Sans" font-size="64.0" fill="#535353" transform="matrix(1.00, 0.00, -0.00, -1.00, 615.1, 16.8)">i</text><text xml:space="preserve" font-family="GillSans-Light,Gill Sans" font-size="64.0" fill="#535353" transform="matrix(1.00, 0.00, -0.00, -1.00, 627.2, 16.8)">t</text><text xml:space="preserve" font-family="GillSans-Light,Gill Sans" font-size="64.0" fill="#535353" transform="matrix(1.00, 0.00, -0.00, -1.00, 646.5, 16.8)">h</text><text xml:space="preserve" font-family="GillSans-Light,Gill Sans" font-size="64.0" fill="#535353" transform="matrix(1.00, 0.00, -0.00, -1.00, 677.9, 16.8)"> </text><text xml:space="preserve" font-family="GillSans-Light,Gill Sans" font-size="64.0" fill="#535353" transform="matrix(1.00, 0.00, -0.00, -1.00, 695.6, 16.8)">a</text><text xml:space="preserve" font-family="GillSans-Light,Gill Sans" font-size="64.0" fill="#535353" transform="matrix(1.00, 0.00, -0.00, -1.00, 722.9, 16.8)"> </text><text xml:space="preserve" font-family="GillSans-Light,Gill Sans" font-size="64.0" fill="#535353" transform="matrix(1.00, 0.00, -0.00, -1.00, 740.7, 16.8)">v</text><text xml:space="preserve" font-family="GillSans-Light,Gill Sans" font-size="64.0" fill="#535353" transform="matrix(1.00, 0.00, -0.00, -1.00, 767.0, 16.8)">e</text><text xml:space="preserve" font-family="GillSans-Light,Gill Sans" font-size="64.0" fill="#535353" transform="matrix(1.00, 0.00, -0.00, -1.00, 797.7, 16.8)">r</text><text xml:space="preserve" font-family="GillSans-Light,Gill Sans" font-size="64.0" fill="#535353" transform="matrix(1.00, 0.00, -0.00, -1.00, 824.1, 16.8)">t</text><text xml:space="preserve" font-family="GillSans-Light,Gill Sans" font-size="64.0" fill="#535353" transform="matrix(1.00, 0.00, -0.00, -1.00, 843.4, 16.8)">i</text><text xml:space="preserve" font-family="GillSans-Light,Gill Sans" font-size="64.0" fill="#535353" transform="matrix(1.00, 0.00, -0.00, -1.00, 855.4, 16.8)">c</text><text xml:space="preserve" font-family="GillSans-Light,Gill Sans" font-size="64.0" fill="#535353" transform="matrix(1.00, 0.00, -0.00, -1.00, 882.1, 16.8)">a</text><text xml:space="preserve" font-family="GillSans-Light,Gill Sans" font-size="64.0" fill="#535353" transform="matrix(1.00, 0.00, -0.00, -1.00, 909.4, 16.8)">l</text><text xml:space="preserve" font-family="GillSans-Light,Gill Sans" font-size="64.0" fill="#535353" transform="matrix(1.00, 0.00, -0.00, -1.00, 921.5, 16.8)"> </text><text xml:space="preserve" font-family="GillSans-Light,Gill Sans" font-size="64.0" fill="#535353" transform="matrix(1.00, 0.00, -0.00, -1.00, 939.2, 16.8)">a</text><text xml:space="preserve" font-family="GillSans-Light,Gill Sans" font-size="64.0" fill="#535353" transform="matrix(1.00, 0.00, -0.00, -1.00, 966.5, 16.8)">s</text><text xml:space="preserve" font-family="GillSans-Light,Gill Sans" font-size="64.0" fill="#535353" transform="matrix(1.00, 0.00, -0.00, -1.00, 989.2, 16.8)">y</text><text xml:space="preserve" font-family="GillSans-Light,Gill Sans" font-size="64.0" fill="#535353" transform="matrix(1.00, 0.00, -0.00, -1.00, 1015.9, 16.8)">m</text><text xml:space="preserve" font-family="GillSans-Light,Gill Sans" font-size="64.0" fill="#535353" transform="matrix(1.00, 0.00, -0.00, -1.00, 1065.2, 16.8)">p</text><text xml:space="preserve" font-family="GillSans-Light,Gill Sans" font-size="64.0" fill="#535353" transform="matrix(1.00, 0.00, -0.00, -1.00, 1097.8, 16.8)">t</text><text xml:space="preserve" font-family="GillSans-Light,Gill Sans" font-size="64.0" fill="#535353" transform="matrix(1.00, 0.00, -0.00, -1.00, 1117.1, 16.8)">o</text><text xml:space="preserve" font-family="GillSans-Light,Gill Sans" font-size="64.0" fill="#535353" transform="matrix(1.00, 0.00, -0.00, -1.00, 1151.8, 16.8)">t</text><text xml:space="preserve" font-family="GillSans-Light,Gill Sans" font-size="64.0" fill="#535353" transform="matrix(1.00, 0.00, -0.00, -1.00, 1171.1, 16.8)">e</text><text xml:space="preserve" font-family="GillSans-Light,Gill Sans" font-size="64.0" fill="#535353" transform="matrix(1.00, 0.00, -0.00, -1.00, 1201.8, 16.8)"> </text><text xml:space="preserve" font-family="GillSans-Light,Gill Sans" font-size="64.0" fill="#535353" transform="matrix(1.00, 0.00, -0.00, -1.00, 1219.5, 16.8)">(</text><text xml:space="preserve" font-family="GillSans-Light,Gill Sans" font-size="64.0" fill="#535353" transform="matrix(1.00, 0.00, -0.00, -1.00, 1240.9, 16.8)">e</text><text xml:space="preserve" font-family="GillSans-Light,Gill Sans" font-size="64.0" fill="#535353" transform="matrix(1.00, 0.00, -0.00, -1.00, 1271.5, 16.8)">x</text><text xml:space="preserve" font-family="GillSans-Light,Gill Sans" font-size="64.0" fill="#535353" transform="matrix(1.00, 0.00, -0.00, -1.00, 1302.2, 16.8)">:</text><text xml:space="preserve" font-family="GillSans-Light,Gill Sans" font-size="64.0" fill="#535353" transform="matrix(1.00, 0.00, -0.00, -1.00, 1308.3, 16.8)"> </text><text xml:space="preserve" font-family="GillSans-Light,Gill Sans" font-size="64.0" fill="#535353" transform="matrix(1.00, 0.00, -0.00, -1.00, 1326.1, 16.8)"> </text><text xml:space="preserve" font-family="GillSans-Light,Gill Sans" font-size="64.0" fill="#535353" transform="matrix(1.00, 0.00, -0.00, -1.00, 1343.9, 16.8)"> </text><text xml:space="preserve" font-family="GillSans-Light,Gill Sans" font-size="64.0" fill="#535353" transform="matrix(1.00, 0.00, -0.00, -1.00, 1361.6, 16.8)"> </text><text xml:space="preserve" font-family="GillSans-Light,Gill Sans" font-size="64.0" fill="#535353" transform="matrix(1.00, 0.00, -0.00, -1.00, 1379.4, 16.8)"> </text><text xml:space="preserve" font-family="GillSans-Light,Gill Sans" font-size="64.0" fill="#535353" transform="matrix(1.00, 0.00, -0.00, -1.00, 1397.2, 16.8)"> </text><text xml:space="preserve" font-family="GillSans-Light,Gill Sans" font-size="64.0" fill="#535353" transform="matrix(1.00, 0.00, -0.00, -1.00, 1415.0, 16.8)"> </text><text xml:space="preserve" font-family="GillSans-Light,Gill Sans" font-size="64.0" fill="#535353" transform="matrix(1.00, 0.00, -0.00, -1.00, 1432.7, 16.8)"> </text><text xml:space="preserve" font-family="GillSans-Light,Gill Sans" font-size="64.0" fill="#535353" transform="matrix(1.00, 0.00, -0.00, -1.00, 1450.5, 16.8)"> </text><text xml:space="preserve" font-family="GillSans-Light,Gill Sans" font-size="64.0" fill="#535353" transform="matrix(1.00, 0.00, -0.00, -1.00, 1468.3, 16.8)"> </text><text xml:space="preserve" font-family="GillSans-Light,Gill Sans" font-size="64.0" fill="#535353" transform="matrix(1.00, 0.00, -0.00, -1.00, 1486.0, 16.8)"> </text><text xml:space="preserve" font-family="GillSans-Light,Gill Sans" font-size="64.0" fill="#535353" transform="matrix(1.00, 0.00, -0.00, -1.00, 1503.8, 16.8)">)</text></g></svg>