<?xml version="1.0" encoding="UTF-8" standalone="no"?><svg xmlns="http://www.w3.org/2000/svg" xmlns:xlink="http://www.w3.org/1999/xlink" clip-rule="evenodd" stroke-miterlimit="10" viewBox="0 0 447 75"><desc>SVG generated by Keynote</desc><defs></defs><g transform="matrix(1.00, 0.00, -0.00, -1.00, 0.0, 75.0)"><text xml:space="preserve" font-family="GillSans-Light,Gill Sans" font-size="64.0" fill="#535353" transform="matrix(1.00, 0.00, -0.00, -1.00, 0.0, 17.0)">•</text><text xml:space="preserve" font-family="GillSans-Light,Gill Sans" font-size="64.0" fill="#535353" transform="matrix(1.00, 0.00, -0.00, -1.00, 50.5, 17.0)">N</text><text xml:space="preserve" font-family="GillSans-Light,Gill Sans" font-size="64.0" fill="#535353" transform="matrix(1.00, 0.00, -0.00, -1.00, 99.9, 17.0)">o</text><text xml:space="preserve" font-family="GillSans-Light,Gill Sans" font-size="64.0" fill="#535353" transform="matrix(1.00, 0.00, -0.00, -1.00, 134.6, 17.0)"> </text><text xml:space="preserve" font-family="GillSans-Light,Gill Sans" font-size="64.0" fill="#535353" transform="matrix(1.00, 0.00, -0.00, -1.00, 152.3, 17.0)">r</text><text xml:space="preserve" font-family="GillSans-Light,Gill Sans" font-size="64.0" fill="#535353" transform="matrix(1.00, 0.00, -0.00, -1.00, 175.2, 17.0)">a</text><text xml:space="preserve" font-family="GillSans-Light,Gill Sans" font-size="64.0" fill="#535353" transform="matrix(1.00, 0.00, -0.00, -1.00, 202.5, 17.0)">t</text><text xml:space="preserve" font-family="GillSans-Light,Gill Sans" font-size="64.0" fill="#535353" transform="matrix(1.00, 0.00, -0.00, -1.00, 221.8, 17.0)">e</text><text xml:space="preserve" font-family="GillSans-Light,Gill Sans" font-size="64.0" fill="#535353" transform="matrix(1.00, 0.00, -0.00, -1.00, 252.5, 17.0)"> </text><text xml:space="preserve" font-family="GillSans-Light,Gill Sans" font-size="64.0" fill="#535353" transform="matrix(1.00, 0.00, -0.00, -1.00, 270.3, 17.0)">l</text><text xml:space="preserve" font-family="GillSans-Light,Gill Sans" font-size="64.0" fill="#535353" transform="matrix(1.00, 0.00, -0.00, -1.00, 282.3, 17.0)">i</text><text xml:space="preserve" font-family="GillSans-Light,Gill Sans" font-size="64.0" fill="#535353" transform="matrix(1.00, 0.00, -0.00, -1.00, 294.3, 17.0)">m</text><text xml:space="preserve" font-family="GillSans-Light,Gill Sans" font-size="64.0" fill="#535353" transform="matrix(1.00, 0.00, -0.00, -1.00, 343.7, 17.0)">i</text><text xml:space="preserve" font-family="GillSans-Light,Gill Sans" font-size="64.0" fill="#535353" transform="matrix(1.00, 0.00, -0.00, -1.00, 355.7, 17.0)">t</text><text xml:space="preserve" font-family="GillSans-Light,Gill Sans" font-size="64.0" fill="#535353" transform="matrix(1.00, 0.00, -0.00, -1.00, 375.0, 17.0)">i</text><text xml:space="preserve" font-family="GillSans-Light,Gill Sans" font-size="64.0" fill="#535353" transform="matrix(1.00, 0.00, -0.00, -1.00, 387.0, 17.0)">n</text><text xml:space="preserve" font-family="GillSans-Light,Gill Sans" font-size="64.0" fill="#535353" transform="matrix(1.00, 0.00, -0.00, -1.00, 418.4, 17.0)">g</text></g></svg>