<?xml version="1.0" encoding="UTF-8" standalone="no"?><svg xmlns="http://www.w3.org/2000/svg" xmlns:xlink="http://www.w3.org/1999/xlink" clip-rule="evenodd" stroke-miterlimit="10" viewBox="0 0 1920 1080"><desc>SVG generated by Keynote</desc><defs></defs><g transform="matrix(1.00, 0.00, -0.00, -1.00, 0.0, 1080.0)"><g><clipPath id="clip0x6000012aa680"><path d="M 0.0 1080.0 L 1920.0 1080.0 L 1920.0 0.0 L 0.0 0.0 Z M 0.0 1080.0 "></path></clipPath><g clip-path="url(#clip0x6000012aa680)"><image xlink:href="../../D5727BE2-F369-4C75-81CE-5937ECEBC72D/assets/73FF40802D6D8C56B1DC83BECE6F24F8.jpeg" width="3840.00" height="2160.00" transform="matrix(0.50, 0.00, -0.00, -0.50, 0.0, 1080.0)"></image></g></g><text xml:space="preserve" font-family="GillSans-Light,Gill Sans" font-size="100.0" fill="#535353" transform="matrix(1.00, 0.00, -0.00, -1.00, 733.4, 883.9)">M</text><text xml:space="preserve" font-family="GillSans-Light,Gill Sans" font-size="100.0" fill="#535353" transform="matrix(1.00, 0.00, -0.00, -1.00, 811.5, 883.9)">o</text><text xml:space="preserve" font-family="GillSans-Light,Gill Sans" font-size="100.0" fill="#535353" transform="matrix(1.00, 0.00, -0.00, -1.00, 865.7, 883.9)">t</text><text xml:space="preserve" font-family="GillSans-Light,Gill Sans" font-size="100.0" fill="#535353" transform="matrix(1.00, 0.00, -0.00, -1.00, 895.8, 883.9)">i</text><text xml:space="preserve" font-family="GillSans-Light,Gill Sans" font-size="100.0" fill="#535353" transform="matrix(1.00, 0.00, -0.00, -1.00, 914.6, 883.9)">v</text><text xml:space="preserve" font-family="GillSans-Light,Gill Sans" font-size="100.0" fill="#535353" transform="matrix(1.00, 0.00, -0.00, -1.00, 957.3, 883.9)">a</text><text xml:space="preserve" font-family="GillSans-Light,Gill Sans" font-size="100.0" fill="#535353" transform="matrix(1.00, 0.00, -0.00, -1.00, 999.9, 883.9)">t</text><text xml:space="preserve" font-family="GillSans-Light,Gill Sans" font-size="100.0" fill="#535353" transform="matrix(1.00, 0.00, -0.00, -1.00, 1030.1, 883.9)">i</text><text xml:space="preserve" font-family="GillSans-Light,Gill Sans" font-size="100.0" fill="#535353" transform="matrix(1.00, 0.00, -0.00, -1.00, 1048.9, 883.9)">o</text><text xml:space="preserve" font-family="GillSans-Light,Gill Sans" font-size="100.0" fill="#535353" transform="matrix(1.00, 0.00, -0.00, -1.00, 1103.1, 883.9)">n</text><text xml:space="preserve" font-family="GillSans-Light,Gill Sans" font-size="100.0" fill="#535353" transform="matrix(1.00, 0.00, -0.00, -1.00, 1152.1, 883.9)">s</text><text xml:space="preserve" font-family="GillSans-Light,Gill Sans" font-size="64.0" fill="#535353" transform="matrix(1.00, 0.00, -0.00, -1.00, 53.0, 559.2)">•</text><text xml:space="preserve" font-family="GillSans-Light,Gill Sans" font-size="64.0" fill="#535353" transform="matrix(1.00, 0.00, -0.00, -1.00, 103.5, 559.2)">C</text><text xml:space="preserve" font-family="GillSans-Light,Gill Sans" font-size="64.0" fill="#535353" transform="matrix(1.00, 0.00, -0.00, -1.00, 146.8, 559.2)">r</text><text xml:space="preserve" font-family="GillSans-Light,Gill Sans" font-size="64.0" fill="#535353" transform="matrix(1.00, 0.00, -0.00, -1.00, 168.1, 559.2)">e</text><text xml:space="preserve" font-family="GillSans-Light,Gill Sans" font-size="64.0" fill="#535353" transform="matrix(1.00, 0.00, -0.00, -1.00, 198.8, 559.2)">a</text><text xml:space="preserve" font-family="GillSans-Light,Gill Sans" font-size="64.0" fill="#535353" transform="matrix(1.00, 0.00, -0.00, -1.00, 226.1, 559.2)">t</text><text xml:space="preserve" font-family="GillSans-Light,Gill Sans" font-size="64.0" fill="#535353" transform="matrix(1.00, 0.00, -0.00, -1.00, 245.4, 559.2)">e</text><text xml:space="preserve" font-family="GillSans-Light,Gill Sans" font-size="64.0" fill="#535353" transform="matrix(1.00, 0.00, -0.00, -1.00, 276.1, 559.2)"> </text><text xml:space="preserve" font-family="GillSans-Light,Gill Sans" font-size="64.0" fill="#535353" transform="matrix(1.00, 0.00, -0.00, -1.00, 293.8, 559.2)">a</text><text xml:space="preserve" font-family="GillSans-Light,Gill Sans" font-size="64.0" fill="#535353" transform="matrix(1.00, 0.00, -0.00, -1.00, 321.1, 559.2)">n</text><text xml:space="preserve" font-family="GillSans-Light,Gill Sans" font-size="64.0" fill="#535353" transform="matrix(1.00, 0.00, -0.00, -1.00, 352.5, 559.2)"> </text><text xml:space="preserve" font-family="GillSans-Light,Gill Sans" font-size="64.0" fill="#535353" transform="matrix(1.00, 0.00, -0.00, -1.00, 370.3, 559.2)">a</text><text xml:space="preserve" font-family="GillSans-Light,Gill Sans" font-size="64.0" fill="#535353" transform="matrix(1.00, 0.00, -0.00, -1.00, 397.6, 559.2)">p</text><text xml:space="preserve" font-family="GillSans-Light,Gill Sans" font-size="64.0" fill="#535353" transform="matrix(1.00, 0.00, -0.00, -1.00, 430.2, 559.2)">p</text><text xml:space="preserve" font-family="GillSans-Light,Gill Sans" font-size="64.0" fill="#535353" transform="matrix(1.00, 0.00, -0.00, -1.00, 462.8, 559.2)">l</text><text xml:space="preserve" font-family="GillSans-Light,Gill Sans" font-size="64.0" fill="#535353" transform="matrix(1.00, 0.00, -0.00, -1.00, 474.8, 559.2)">i</text><text xml:space="preserve" font-family="GillSans-Light,Gill Sans" font-size="64.0" fill="#535353" transform="matrix(1.00, 0.00, -0.00, -1.00, 486.9, 559.2)">c</text><text xml:space="preserve" font-family="GillSans-Light,Gill Sans" font-size="64.0" fill="#535353" transform="matrix(1.00, 0.00, -0.00, -1.00, 513.5, 559.2)">a</text><text xml:space="preserve" font-family="GillSans-Light,Gill Sans" font-size="64.0" fill="#535353" transform="matrix(1.00, 0.00, -0.00, -1.00, 540.8, 559.2)">t</text><text xml:space="preserve" font-family="GillSans-Light,Gill Sans" font-size="64.0" fill="#535353" transform="matrix(1.00, 0.00, -0.00, -1.00, 560.1, 559.2)">i</text><text xml:space="preserve" font-family="GillSans-Light,Gill Sans" font-size="64.0" fill="#535353" transform="matrix(1.00, 0.00, -0.00, -1.00, 572.2, 559.2)">o</text><text xml:space="preserve" font-family="GillSans-Light,Gill Sans" font-size="64.0" fill="#535353" transform="matrix(1.00, 0.00, -0.00, -1.00, 606.9, 559.2)">n</text><text xml:space="preserve" font-family="GillSans-Light,Gill Sans" font-size="64.0" fill="#535353" transform="matrix(1.00, 0.00, -0.00, -1.00, 638.3, 559.2)"> </text><text xml:space="preserve" font-family="GillSans-Light,Gill Sans" font-size="64.0" fill="#535353" transform="matrix(1.00, 0.00, -0.00, -1.00, 656.0, 559.2)">t</text><text xml:space="preserve" font-family="GillSans-Light,Gill Sans" font-size="64.0" fill="#535353" transform="matrix(1.00, 0.00, -0.00, -1.00, 675.3, 559.2)">h</text><text xml:space="preserve" font-family="GillSans-Light,Gill Sans" font-size="64.0" fill="#535353" transform="matrix(1.00, 0.00, -0.00, -1.00, 706.7, 559.2)">a</text><text xml:space="preserve" font-family="GillSans-Light,Gill Sans" font-size="64.0" fill="#535353" transform="matrix(1.00, 0.00, -0.00, -1.00, 734.0, 559.2)">t</text><text xml:space="preserve" font-family="GillSans-Light,Gill Sans" font-size="64.0" fill="#535353" transform="matrix(1.00, 0.00, -0.00, -1.00, 753.3, 559.2)"> </text><text xml:space="preserve" font-family="GillSans-Light,Gill Sans" font-size="64.0" fill="#535353" transform="matrix(1.00, 0.00, -0.00, -1.00, 771.1, 559.2)">c</text><text xml:space="preserve" font-family="GillSans-Light,Gill Sans" font-size="64.0" fill="#535353" transform="matrix(1.00, 0.00, -0.00, -1.00, 797.8, 559.2)">a</text><text xml:space="preserve" font-family="GillSans-Light,Gill Sans" font-size="64.0" fill="#535353" transform="matrix(1.00, 0.00, -0.00, -1.00, 825.1, 559.2)">n</text><text xml:space="preserve" font-family="GillSans-Light,Gill Sans" font-size="64.0" fill="#535353" transform="matrix(1.00, 0.00, -0.00, -1.00, 856.5, 559.2)">…</text><text xml:space="preserve" font-family="GillSans-Light,Gill Sans" font-size="64.0" fill="#535353" transform="matrix(1.00, 0.00, -0.00, -1.00, 113.0, 407.8)">•</text><text xml:space="preserve" font-family="GillSans-Light,Gill Sans" font-size="64.0" fill="#535353" transform="matrix(1.00, 0.00, -0.00, -1.00, 163.5, 407.8)">C</text><text xml:space="preserve" font-family="GillSans-Light,Gill Sans" font-size="64.0" fill="#535353" transform="matrix(1.00, 0.00, -0.00, -1.00, 206.8, 407.8)">h</text><text xml:space="preserve" font-family="GillSans-Light,Gill Sans" font-size="64.0" fill="#535353" transform="matrix(1.00, 0.00, -0.00, -1.00, 238.2, 407.8)">e</text><text xml:space="preserve" font-family="GillSans-Light,Gill Sans" font-size="64.0" fill="#535353" transform="matrix(1.00, 0.00, -0.00, -1.00, 268.9, 407.8)">c</text><text xml:space="preserve" font-family="GillSans-Light,Gill Sans" font-size="64.0" fill="#535353" transform="matrix(1.00, 0.00, -0.00, -1.00, 295.6, 407.8)">k</text><text xml:space="preserve" font-family="GillSans-Light,Gill Sans" font-size="64.0" fill="#535353" transform="matrix(1.00, 0.00, -0.00, -1.00, 322.9, 407.8)"> </text><text xml:space="preserve" font-family="GillSans-Light,Gill Sans" font-size="64.0" fill="#535353" transform="matrix(1.00, 0.00, -0.00, -1.00, 340.6, 407.8)">o</text><text xml:space="preserve" font-family="GillSans-Light,Gill Sans" font-size="64.0" fill="#535353" transform="matrix(1.00, 0.00, -0.00, -1.00, 375.3, 407.8)">u</text><text xml:space="preserve" font-family="GillSans-Light,Gill Sans" font-size="64.0" fill="#535353" transform="matrix(1.00, 0.00, -0.00, -1.00, 406.7, 407.8)">r</text><text xml:space="preserve" font-family="GillSans-Light,Gill Sans" font-size="64.0" fill="#535353" transform="matrix(1.00, 0.00, -0.00, -1.00, 428.0, 407.8)"> </text><text xml:space="preserve" font-family="GillSans-Light,Gill Sans" font-size="64.0" fill="#535353" transform="matrix(1.00, 0.00, -0.00, -1.00, 445.8, 407.8)">h</text><text xml:space="preserve" font-family="GillSans-Light,Gill Sans" font-size="64.0" fill="#535353" transform="matrix(1.00, 0.00, -0.00, -1.00, 477.2, 407.8)">o</text><text xml:space="preserve" font-family="GillSans-Light,Gill Sans" font-size="64.0" fill="#535353" transform="matrix(1.00, 0.00, -0.00, -1.00, 511.9, 407.8)">m</text><text xml:space="preserve" font-family="GillSans-Light,Gill Sans" font-size="64.0" fill="#535353" transform="matrix(1.00, 0.00, -0.00, -1.00, 561.2, 407.8)">e</text><text xml:space="preserve" font-family="GillSans-Light,Gill Sans" font-size="64.0" fill="#535353" transform="matrix(1.00, 0.00, -0.00, -1.00, 591.9, 407.8)">w</text><text xml:space="preserve" font-family="GillSans-Light,Gill Sans" font-size="64.0" fill="#535353" transform="matrix(1.00, 0.00, -0.00, -1.00, 636.2, 407.8)">o</text><text xml:space="preserve" font-family="GillSans-Light,Gill Sans" font-size="64.0" fill="#535353" transform="matrix(1.00, 0.00, -0.00, -1.00, 670.9, 407.8)">r</text><text xml:space="preserve" font-family="GillSans-Light,Gill Sans" font-size="64.0" fill="#535353" transform="matrix(1.00, 0.00, -0.00, -1.00, 694.8, 407.8)">k</text><text xml:space="preserve" font-family="GillSans-Light,Gill Sans" font-size="64.0" fill="#535353" transform="matrix(1.00, 0.00, -0.00, -1.00, 113.0, 256.4)">•</text><text xml:space="preserve" font-family="GillSans-Light,Gill Sans" font-size="64.0" fill="#535353" transform="matrix(1.00, 0.00, -0.00, -1.00, 163.5, 256.4)">	</text><text xml:space="preserve" font-family="GillSans-Light,Gill Sans" font-size="64.0" fill="#535353" transform="matrix(1.00, 0.00, -0.00, -1.00, 191.5, 256.4)">
</text><text xml:space="preserve" font-family="GillSans-Light,Gill Sans" font-size="64.0" fill="#535353" transform="matrix(1.00, 0.00, -0.00, -1.00, 191.5, 256.4)"></text><text xml:space="preserve" font-family="GillSans-Light,Gill Sans" font-size="64.0" fill="#535353" transform="matrix(1.00, 0.00, -0.00, -1.00, 193.2, 256.4)">S</text><text xml:space="preserve" font-family="GillSans-Light,Gill Sans" font-size="64.0" fill="#535353" transform="matrix(1.00, 0.00, -0.00, -1.00, 223.3, 256.4)">o</text><text xml:space="preserve" font-family="GillSans-Light,Gill Sans" font-size="64.0" fill="#535353" transform="matrix(1.00, 0.00, -0.00, -1.00, 257.9, 256.4)">l</text><text xml:space="preserve" font-family="GillSans-Light,Gill Sans" font-size="64.0" fill="#535353" transform="matrix(1.00, 0.00, -0.00, -1.00, 270.0, 256.4)">v</text><text xml:space="preserve" font-family="GillSans-Light,Gill Sans" font-size="64.0" fill="#535353" transform="matrix(1.00, 0.00, -0.00, -1.00, 296.3, 256.4)">e</text><text xml:space="preserve" font-family="GillSans-Light,Gill Sans" font-size="64.0" fill="#535353" transform="matrix(1.00, 0.00, -0.00, -1.00, 327.0, 256.4)"> </text><text xml:space="preserve" font-family="GillSans-Light,Gill Sans" font-size="64.0" fill="#535353" transform="matrix(1.00, 0.00, -0.00, -1.00, 344.7, 256.4)">a</text><text xml:space="preserve" font-family="GillSans-Light,Gill Sans" font-size="64.0" fill="#535353" transform="matrix(1.00, 0.00, -0.00, -1.00, 372.0, 256.4)">n</text><text xml:space="preserve" font-family="GillSans-Light,Gill Sans" font-size="64.0" fill="#535353" transform="matrix(1.00, 0.00, -0.00, -1.00, 403.4, 256.4)"> </text><text xml:space="preserve" font-family="GillSans-Light,Gill Sans" font-size="64.0" fill="#535353" transform="matrix(1.00, 0.00, -0.00, -1.00, 421.2, 256.4)">i</text><text xml:space="preserve" font-family="GillSans-Light,Gill Sans" font-size="64.0" fill="#535353" transform="matrix(1.00, 0.00, -0.00, -1.00, 433.2, 256.4)">n</text><text xml:space="preserve" font-family="GillSans-Light,Gill Sans" font-size="64.0" fill="#535353" transform="matrix(1.00, 0.00, -0.00, -1.00, 464.6, 256.4)">t</text><text xml:space="preserve" font-family="GillSans-Light,Gill Sans" font-size="64.0" fill="#535353" transform="matrix(1.00, 0.00, -0.00, -1.00, 483.9, 256.4)">e</text><text xml:space="preserve" font-family="GillSans-Light,Gill Sans" font-size="64.0" fill="#535353" transform="matrix(1.00, 0.00, -0.00, -1.00, 514.6, 256.4)">r</text><text xml:space="preserve" font-family="GillSans-Light,Gill Sans" font-size="64.0" fill="#535353" transform="matrix(1.00, 0.00, -0.00, -1.00, 535.9, 256.4)">e</text><text xml:space="preserve" font-family="GillSans-Light,Gill Sans" font-size="64.0" fill="#535353" transform="matrix(1.00, 0.00, -0.00, -1.00, 566.5, 256.4)">s</text><text xml:space="preserve" font-family="GillSans-Light,Gill Sans" font-size="64.0" fill="#535353" transform="matrix(1.00, 0.00, -0.00, -1.00, 589.2, 256.4)">t</text><text xml:space="preserve" font-family="GillSans-Light,Gill Sans" font-size="64.0" fill="#535353" transform="matrix(1.00, 0.00, -0.00, -1.00, 608.5, 256.4)">i</text><text xml:space="preserve" font-family="GillSans-Light,Gill Sans" font-size="64.0" fill="#535353" transform="matrix(1.00, 0.00, -0.00, -1.00, 620.5, 256.4)">n</text><text xml:space="preserve" font-family="GillSans-Light,Gill Sans" font-size="64.0" fill="#535353" transform="matrix(1.00, 0.00, -0.00, -1.00, 651.9, 256.4)">g</text><text xml:space="preserve" font-family="GillSans-Light,Gill Sans" font-size="64.0" fill="#535353" transform="matrix(1.00, 0.00, -0.00, -1.00, 679.2, 256.4)"> </text><text xml:space="preserve" font-family="GillSans-Light,Gill Sans" font-size="64.0" fill="#535353" transform="matrix(1.00, 0.00, -0.00, -1.00, 697.0, 256.4)">p</text><text xml:space="preserve" font-family="GillSans-Light,Gill Sans" font-size="64.0" fill="#535353" transform="matrix(1.00, 0.00, -0.00, -1.00, 729.6, 256.4)">r</text><text xml:space="preserve" font-family="GillSans-Light,Gill Sans" font-size="64.0" fill="#535353" transform="matrix(1.00, 0.00, -0.00, -1.00, 750.9, 256.4)">o</text><text xml:space="preserve" font-family="GillSans-Light,Gill Sans" font-size="64.0" fill="#535353" transform="matrix(1.00, 0.00, -0.00, -1.00, 785.6, 256.4)">b</text><text xml:space="preserve" font-family="GillSans-Light,Gill Sans" font-size="64.0" fill="#535353" transform="matrix(1.00, 0.00, -0.00, -1.00, 817.2, 256.4)">l</text><text xml:space="preserve" font-family="GillSans-Light,Gill Sans" font-size="64.0" fill="#535353" transform="matrix(1.00, 0.00, -0.00, -1.00, 829.2, 256.4)">e</text><text xml:space="preserve" font-family="GillSans-Light,Gill Sans" font-size="64.0" fill="#535353" transform="matrix(1.00, 0.00, -0.00, -1.00, 859.9, 256.4)">m</text></g></svg>