<?xml version="1.0" encoding="UTF-8" standalone="no"?><svg xmlns="http://www.w3.org/2000/svg" xmlns:xlink="http://www.w3.org/1999/xlink" clip-rule="evenodd" stroke-miterlimit="10" viewBox="0 0 1920 1080"><desc>SVG generated by Keynote</desc><defs></defs><g transform="matrix(1.00, 0.00, -0.00, -1.00, 0.0, 1080.0)"><g><clipPath id="clip0x6000006bce60"><path d="M 0.0 1080.0 L 1920.0 1080.0 L 1920.0 0.0 L 0.0 0.0 Z M 0.0 1080.0 "></path></clipPath><g clip-path="url(#clip0x6000006bce60)"><image xlink:href="../../D5727BE2-F369-4C75-81CE-5937ECEBC72D/assets/73FF40802D6D8C56B1DC83BECE6F24F8.jpeg" width="3840.00" height="2160.00" transform="matrix(0.50, 0.00, -0.00, -0.50, 0.0, 1080.0)"></image></g></g><text xml:space="preserve" font-family="GillSans-Light,Gill Sans" font-size="100.0" fill="#535353" transform="matrix(1.00, 0.00, -0.00, -1.00, 750.6, 883.9)">C</text><text xml:space="preserve" font-family="GillSans-Light,Gill Sans" font-size="100.0" fill="#535353" transform="matrix(1.00, 0.00, -0.00, -1.00, 818.2, 883.9)">h</text><text xml:space="preserve" font-family="GillSans-Light,Gill Sans" font-size="100.0" fill="#535353" transform="matrix(1.00, 0.00, -0.00, -1.00, 867.3, 883.9)">a</text><text xml:space="preserve" font-family="GillSans-Light,Gill Sans" font-size="100.0" fill="#535353" transform="matrix(1.00, 0.00, -0.00, -1.00, 909.9, 883.9)">l</text><text xml:space="preserve" font-family="GillSans-Light,Gill Sans" font-size="100.0" fill="#535353" transform="matrix(1.00, 0.00, -0.00, -1.00, 928.7, 883.9)">l</text><text xml:space="preserve" font-family="GillSans-Light,Gill Sans" font-size="100.0" fill="#535353" transform="matrix(1.00, 0.00, -0.00, -1.00, 947.5, 883.9)">e</text><text xml:space="preserve" font-family="GillSans-Light,Gill Sans" font-size="100.0" fill="#535353" transform="matrix(1.00, 0.00, -0.00, -1.00, 995.4, 883.9)">n</text><text xml:space="preserve" font-family="GillSans-Light,Gill Sans" font-size="100.0" fill="#535353" transform="matrix(1.00, 0.00, -0.00, -1.00, 1044.5, 883.9)">g</text><text xml:space="preserve" font-family="GillSans-Light,Gill Sans" font-size="100.0" fill="#535353" transform="matrix(1.00, 0.00, -0.00, -1.00, 1087.1, 883.9)">e</text><text xml:space="preserve" font-family="GillSans-Light,Gill Sans" font-size="100.0" fill="#535353" transform="matrix(1.00, 0.00, -0.00, -1.00, 1135.0, 883.9)">s</text><text xml:space="preserve" font-family="GillSans-Light,Gill Sans" font-size="64.0" fill="#535353" transform="matrix(1.00, 0.00, -0.00, -1.00, 113.0, 559.2)">•</text><text xml:space="preserve" font-family="GillSans-Light,Gill Sans" font-size="64.0" fill="#535353" transform="matrix(1.00, 0.00, -0.00, -1.00, 163.5, 559.2)">C</text><text xml:space="preserve" font-family="GillSans-Light,Gill Sans" font-size="64.0" fill="#535353" transform="matrix(1.00, 0.00, -0.00, -1.00, 206.8, 559.2)">o</text><text xml:space="preserve" font-family="GillSans-Light,Gill Sans" font-size="64.0" fill="#535353" transform="matrix(1.00, 0.00, -0.00, -1.00, 241.5, 559.2)">n</text><text xml:space="preserve" font-family="GillSans-Light,Gill Sans" font-size="64.0" fill="#535353" transform="matrix(1.00, 0.00, -0.00, -1.00, 271.9, 559.2)">v</text><text xml:space="preserve" font-family="GillSans-Light,Gill Sans" font-size="64.0" fill="#535353" transform="matrix(1.00, 0.00, -0.00, -1.00, 298.3, 559.2)">e</text><text xml:space="preserve" font-family="GillSans-Light,Gill Sans" font-size="64.0" fill="#535353" transform="matrix(1.00, 0.00, -0.00, -1.00, 328.9, 559.2)">r</text><text xml:space="preserve" font-family="GillSans-Light,Gill Sans" font-size="64.0" fill="#535353" transform="matrix(1.00, 0.00, -0.00, -1.00, 355.4, 559.2)">t</text><text xml:space="preserve" font-family="GillSans-Light,Gill Sans" font-size="64.0" fill="#535353" transform="matrix(1.00, 0.00, -0.00, -1.00, 374.7, 559.2)">i</text><text xml:space="preserve" font-family="GillSans-Light,Gill Sans" font-size="64.0" fill="#535353" transform="matrix(1.00, 0.00, -0.00, -1.00, 386.7, 559.2)">n</text><text xml:space="preserve" font-family="GillSans-Light,Gill Sans" font-size="64.0" fill="#535353" transform="matrix(1.00, 0.00, -0.00, -1.00, 418.1, 559.2)">g</text><text xml:space="preserve" font-family="GillSans-Light,Gill Sans" font-size="64.0" fill="#535353" transform="matrix(1.00, 0.00, -0.00, -1.00, 445.4, 559.2)"> </text><text xml:space="preserve" font-family="GillSans-Light,Gill Sans" font-size="64.0" fill="#535353" transform="matrix(1.00, 0.00, -0.00, -1.00, 463.1, 559.2)">f</text><text xml:space="preserve" font-family="GillSans-Light,Gill Sans" font-size="64.0" fill="#535353" transform="matrix(1.00, 0.00, -0.00, -1.00, 477.9, 559.2)">o</text><text xml:space="preserve" font-family="GillSans-Light,Gill Sans" font-size="64.0" fill="#535353" transform="matrix(1.00, 0.00, -0.00, -1.00, 512.6, 559.2)">r</text><text xml:space="preserve" font-family="GillSans-Light,Gill Sans" font-size="64.0" fill="#535353" transform="matrix(1.00, 0.00, -0.00, -1.00, 535.5, 559.2)">m</text><text xml:space="preserve" font-family="GillSans-Light,Gill Sans" font-size="64.0" fill="#535353" transform="matrix(1.00, 0.00, -0.00, -1.00, 583.9, 559.2)">u</text><text xml:space="preserve" font-family="GillSans-Light,Gill Sans" font-size="64.0" fill="#535353" transform="matrix(1.00, 0.00, -0.00, -1.00, 615.3, 559.2)">l</text><text xml:space="preserve" font-family="GillSans-Light,Gill Sans" font-size="64.0" fill="#535353" transform="matrix(1.00, 0.00, -0.00, -1.00, 627.3, 559.2)">a</text><text xml:space="preserve" font-family="GillSans-Light,Gill Sans" font-size="64.0" fill="#535353" transform="matrix(1.00, 0.00, -0.00, -1.00, 654.6, 559.2)">s</text><text xml:space="preserve" font-family="GillSans-Light,Gill Sans" font-size="64.0" fill="#535353" transform="matrix(1.00, 0.00, -0.00, -1.00, 677.3, 559.2)"> </text><text xml:space="preserve" font-family="GillSans-Light,Gill Sans" font-size="64.0" fill="#535353" transform="matrix(1.00, 0.00, -0.00, -1.00, 695.0, 559.2)">f</text><text xml:space="preserve" font-family="GillSans-Light,Gill Sans" font-size="64.0" fill="#535353" transform="matrix(1.00, 0.00, -0.00, -1.00, 709.8, 559.2)">o</text><text xml:space="preserve" font-family="GillSans-Light,Gill Sans" font-size="64.0" fill="#535353" transform="matrix(1.00, 0.00, -0.00, -1.00, 744.5, 559.2)">r</text><text xml:space="preserve" font-family="GillSans-Light,Gill Sans" font-size="64.0" fill="#535353" transform="matrix(1.00, 0.00, -0.00, -1.00, 765.8, 559.2)"> </text><text xml:space="preserve" font-family="GillSans-Light,Gill Sans" font-size="64.0" fill="#535353" transform="matrix(1.00, 0.00, -0.00, -1.00, 783.6, 559.2)">i</text><text xml:space="preserve" font-family="GillSans-Light,Gill Sans" font-size="64.0" fill="#535353" transform="matrix(1.00, 0.00, -0.00, -1.00, 795.6, 559.2)">n</text><text xml:space="preserve" font-family="GillSans-Light,Gill Sans" font-size="64.0" fill="#535353" transform="matrix(1.00, 0.00, -0.00, -1.00, 827.0, 559.2)">t</text><text xml:space="preserve" font-family="GillSans-Light,Gill Sans" font-size="64.0" fill="#535353" transform="matrix(1.00, 0.00, -0.00, -1.00, 846.3, 559.2)">u</text><text xml:space="preserve" font-family="GillSans-Light,Gill Sans" font-size="64.0" fill="#535353" transform="matrix(1.00, 0.00, -0.00, -1.00, 877.7, 559.2)">i</text><text xml:space="preserve" font-family="GillSans-Light,Gill Sans" font-size="64.0" fill="#535353" transform="matrix(1.00, 0.00, -0.00, -1.00, 889.7, 559.2)">t</text><text xml:space="preserve" font-family="GillSans-Light,Gill Sans" font-size="64.0" fill="#535353" transform="matrix(1.00, 0.00, -0.00, -1.00, 909.0, 559.2)">i</text><text xml:space="preserve" font-family="GillSans-Light,Gill Sans" font-size="64.0" fill="#535353" transform="matrix(1.00, 0.00, -0.00, -1.00, 921.0, 559.2)">v</text><text xml:space="preserve" font-family="GillSans-Light,Gill Sans" font-size="64.0" fill="#535353" transform="matrix(1.00, 0.00, -0.00, -1.00, 947.4, 559.2)">e</text><text xml:space="preserve" font-family="GillSans-Light,Gill Sans" font-size="64.0" fill="#535353" transform="matrix(1.00, 0.00, -0.00, -1.00, 978.0, 559.2)"> </text><text xml:space="preserve" font-family="GillSans-Light,Gill Sans" font-size="64.0" fill="#535353" transform="matrix(1.00, 0.00, -0.00, -1.00, 995.8, 559.2)">s</text><text xml:space="preserve" font-family="GillSans-Light,Gill Sans" font-size="64.0" fill="#535353" transform="matrix(1.00, 0.00, -0.00, -1.00, 1018.4, 559.2)">y</text><text xml:space="preserve" font-family="GillSans-Light,Gill Sans" font-size="64.0" fill="#535353" transform="matrix(1.00, 0.00, -0.00, -1.00, 1045.1, 559.2)">n</text><text xml:space="preserve" font-family="GillSans-Light,Gill Sans" font-size="64.0" fill="#535353" transform="matrix(1.00, 0.00, -0.00, -1.00, 1076.5, 559.2)">t</text><text xml:space="preserve" font-family="GillSans-Light,Gill Sans" font-size="64.0" fill="#535353" transform="matrix(1.00, 0.00, -0.00, -1.00, 1095.8, 559.2)">a</text><text xml:space="preserve" font-family="GillSans-Light,Gill Sans" font-size="64.0" fill="#535353" transform="matrix(1.00, 0.00, -0.00, -1.00, 1123.1, 559.2)">x</text><text xml:space="preserve" font-family="GillSans-Light,Gill Sans" font-size="64.0" fill="#535353" transform="matrix(1.00, 0.00, -0.00, -1.00, 113.0, 407.8)">•</text><text xml:space="preserve" font-family="GillSans-Light,Gill Sans" font-size="64.0" fill="#535353" transform="matrix(1.00, 0.00, -0.00, -1.00, 163.5, 407.8)">R</text><text xml:space="preserve" font-family="GillSans-Light,Gill Sans" font-size="64.0" fill="#535353" transform="matrix(1.00, 0.00, -0.00, -1.00, 200.2, 407.8)">e</text><text xml:space="preserve" font-family="GillSans-Light,Gill Sans" font-size="64.0" fill="#535353" transform="matrix(1.00, 0.00, -0.00, -1.00, 230.9, 407.8)">s</text><text xml:space="preserve" font-family="GillSans-Light,Gill Sans" font-size="64.0" fill="#535353" transform="matrix(1.00, 0.00, -0.00, -1.00, 253.5, 407.8)">o</text><text xml:space="preserve" font-family="GillSans-Light,Gill Sans" font-size="64.0" fill="#535353" transform="matrix(1.00, 0.00, -0.00, -1.00, 288.2, 407.8)">l</text><text xml:space="preserve" font-family="GillSans-Light,Gill Sans" font-size="64.0" fill="#535353" transform="matrix(1.00, 0.00, -0.00, -1.00, 300.3, 407.8)">v</text><text xml:space="preserve" font-family="GillSans-Light,Gill Sans" font-size="64.0" fill="#535353" transform="matrix(1.00, 0.00, -0.00, -1.00, 327.6, 407.8)">i</text><text xml:space="preserve" font-family="GillSans-Light,Gill Sans" font-size="64.0" fill="#535353" transform="matrix(1.00, 0.00, -0.00, -1.00, 339.6, 407.8)">n</text><text xml:space="preserve" font-family="GillSans-Light,Gill Sans" font-size="64.0" fill="#535353" transform="matrix(1.00, 0.00, -0.00, -1.00, 371.0, 407.8)">g</text><text xml:space="preserve" font-family="GillSans-Light,Gill Sans" font-size="64.0" fill="#535353" transform="matrix(1.00, 0.00, -0.00, -1.00, 398.3, 407.8)"> </text><text xml:space="preserve" font-family="GillSans-Light,Gill Sans" font-size="64.0" fill="#535353" transform="matrix(1.00, 0.00, -0.00, -1.00, 416.0, 407.8)">p</text><text xml:space="preserve" font-family="GillSans-Light,Gill Sans" font-size="64.0" fill="#535353" transform="matrix(1.00, 0.00, -0.00, -1.00, 448.7, 407.8)">e</text><text xml:space="preserve" font-family="GillSans-Light,Gill Sans" font-size="64.0" fill="#535353" transform="matrix(1.00, 0.00, -0.00, -1.00, 479.3, 407.8)">r</text><text xml:space="preserve" font-family="GillSans-Light,Gill Sans" font-size="64.0" fill="#535353" transform="matrix(1.00, 0.00, -0.00, -1.00, 500.6, 407.8)">f</text><text xml:space="preserve" font-family="GillSans-Light,Gill Sans" font-size="64.0" fill="#535353" transform="matrix(1.00, 0.00, -0.00, -1.00, 515.4, 407.8)">o</text><text xml:space="preserve" font-family="GillSans-Light,Gill Sans" font-size="64.0" fill="#535353" transform="matrix(1.00, 0.00, -0.00, -1.00, 550.1, 407.8)">r</text><text xml:space="preserve" font-family="GillSans-Light,Gill Sans" font-size="64.0" fill="#535353" transform="matrix(1.00, 0.00, -0.00, -1.00, 573.0, 407.8)">m</text><text xml:space="preserve" font-family="GillSans-Light,Gill Sans" font-size="64.0" fill="#535353" transform="matrix(1.00, 0.00, -0.00, -1.00, 622.3, 407.8)">a</text><text xml:space="preserve" font-family="GillSans-Light,Gill Sans" font-size="64.0" fill="#535353" transform="matrix(1.00, 0.00, -0.00, -1.00, 649.6, 407.8)">n</text><text xml:space="preserve" font-family="GillSans-Light,Gill Sans" font-size="64.0" fill="#535353" transform="matrix(1.00, 0.00, -0.00, -1.00, 681.0, 407.8)">c</text><text xml:space="preserve" font-family="GillSans-Light,Gill Sans" font-size="64.0" fill="#535353" transform="matrix(1.00, 0.00, -0.00, -1.00, 707.7, 407.8)">e</text><text xml:space="preserve" font-family="GillSans-Light,Gill Sans" font-size="64.0" fill="#535353" transform="matrix(1.00, 0.00, -0.00, -1.00, 738.4, 407.8)"> </text><text xml:space="preserve" font-family="GillSans-Light,Gill Sans" font-size="64.0" fill="#535353" transform="matrix(1.00, 0.00, -0.00, -1.00, 756.1, 407.8)">i</text><text xml:space="preserve" font-family="GillSans-Light,Gill Sans" font-size="64.0" fill="#535353" transform="matrix(1.00, 0.00, -0.00, -1.00, 768.2, 407.8)">s</text><text xml:space="preserve" font-family="GillSans-Light,Gill Sans" font-size="64.0" fill="#535353" transform="matrix(1.00, 0.00, -0.00, -1.00, 790.8, 407.8)">s</text><text xml:space="preserve" font-family="GillSans-Light,Gill Sans" font-size="64.0" fill="#535353" transform="matrix(1.00, 0.00, -0.00, -1.00, 813.5, 407.8)">u</text><text xml:space="preserve" font-family="GillSans-Light,Gill Sans" font-size="64.0" fill="#535353" transform="matrix(1.00, 0.00, -0.00, -1.00, 844.9, 407.8)">e</text><text xml:space="preserve" font-family="GillSans-Light,Gill Sans" font-size="64.0" fill="#535353" transform="matrix(1.00, 0.00, -0.00, -1.00, 875.5, 407.8)">s</text><text xml:space="preserve" font-family="GillSans-Light,Gill Sans" font-size="64.0" fill="#535353" transform="matrix(1.00, 0.00, -0.00, -1.00, 113.0, 256.4)">•</text><text xml:space="preserve" font-family="GillSans-Light,Gill Sans" font-size="64.0" fill="#535353" transform="matrix(1.00, 0.00, -0.00, -1.00, 163.5, 256.4)">W</text><text xml:space="preserve" font-family="GillSans-Light,Gill Sans" font-size="64.0" fill="#535353" transform="matrix(1.00, 0.00, -0.00, -1.00, 225.0, 256.4)">o</text><text xml:space="preserve" font-family="GillSans-Light,Gill Sans" font-size="64.0" fill="#535353" transform="matrix(1.00, 0.00, -0.00, -1.00, 259.7, 256.4)">r</text><text xml:space="preserve" font-family="GillSans-Light,Gill Sans" font-size="64.0" fill="#535353" transform="matrix(1.00, 0.00, -0.00, -1.00, 283.6, 256.4)">k</text><text xml:space="preserve" font-family="GillSans-Light,Gill Sans" font-size="64.0" fill="#535353" transform="matrix(1.00, 0.00, -0.00, -1.00, 310.2, 256.4)">e</text><text xml:space="preserve" font-family="GillSans-Light,Gill Sans" font-size="64.0" fill="#535353" transform="matrix(1.00, 0.00, -0.00, -1.00, 340.9, 256.4)">d</text><text xml:space="preserve" font-family="GillSans-Light,Gill Sans" font-size="64.0" fill="#535353" transform="matrix(1.00, 0.00, -0.00, -1.00, 373.5, 256.4)"> </text><text xml:space="preserve" font-family="GillSans-Light,Gill Sans" font-size="64.0" fill="#535353" transform="matrix(1.00, 0.00, -0.00, -1.00, 391.3, 256.4)">a</text><text xml:space="preserve" font-family="GillSans-Light,Gill Sans" font-size="64.0" fill="#535353" transform="matrix(1.00, 0.00, -0.00, -1.00, 418.6, 256.4)">r</text><text xml:space="preserve" font-family="GillSans-Light,Gill Sans" font-size="64.0" fill="#535353" transform="matrix(1.00, 0.00, -0.00, -1.00, 439.9, 256.4)">o</text><text xml:space="preserve" font-family="GillSans-Light,Gill Sans" font-size="64.0" fill="#535353" transform="matrix(1.00, 0.00, -0.00, -1.00, 474.6, 256.4)">u</text><text xml:space="preserve" font-family="GillSans-Light,Gill Sans" font-size="64.0" fill="#535353" transform="matrix(1.00, 0.00, -0.00, -1.00, 506.0, 256.4)">n</text><text xml:space="preserve" font-family="GillSans-Light,Gill Sans" font-size="64.0" fill="#535353" transform="matrix(1.00, 0.00, -0.00, -1.00, 537.4, 256.4)">d</text><text xml:space="preserve" font-family="GillSans-Light,Gill Sans" font-size="64.0" fill="#535353" transform="matrix(1.00, 0.00, -0.00, -1.00, 570.0, 256.4)"> </text><text xml:space="preserve" font-family="GillSans-Light,Gill Sans" font-size="64.0" fill="#535353" transform="matrix(1.00, 0.00, -0.00, -1.00, 587.7, 256.4)">f</text><text xml:space="preserve" font-family="GillSans-Light,Gill Sans" font-size="64.0" fill="#535353" transform="matrix(1.00, 0.00, -0.00, -1.00, 603.1, 256.4)">l</text><text xml:space="preserve" font-family="GillSans-Light,Gill Sans" font-size="64.0" fill="#535353" transform="matrix(1.00, 0.00, -0.00, -1.00, 615.2, 256.4)">o</text><text xml:space="preserve" font-family="GillSans-Light,Gill Sans" font-size="64.0" fill="#535353" transform="matrix(1.00, 0.00, -0.00, -1.00, 649.8, 256.4)">a</text><text xml:space="preserve" font-family="GillSans-Light,Gill Sans" font-size="64.0" fill="#535353" transform="matrix(1.00, 0.00, -0.00, -1.00, 677.1, 256.4)">t</text><text xml:space="preserve" font-family="GillSans-Light,Gill Sans" font-size="64.0" fill="#535353" transform="matrix(1.00, 0.00, -0.00, -1.00, 696.4, 256.4)">i</text><text xml:space="preserve" font-family="GillSans-Light,Gill Sans" font-size="64.0" fill="#535353" transform="matrix(1.00, 0.00, -0.00, -1.00, 708.5, 256.4)">n</text><text xml:space="preserve" font-family="GillSans-Light,Gill Sans" font-size="64.0" fill="#535353" transform="matrix(1.00, 0.00, -0.00, -1.00, 739.9, 256.4)">g</text><text xml:space="preserve" font-family="GillSans-Light,Gill Sans" font-size="64.0" fill="#535353" transform="matrix(1.00, 0.00, -0.00, -1.00, 767.2, 256.4)"> </text><text xml:space="preserve" font-family="GillSans-Light,Gill Sans" font-size="64.0" fill="#535353" transform="matrix(1.00, 0.00, -0.00, -1.00, 784.9, 256.4)">p</text><text xml:space="preserve" font-family="GillSans-Light,Gill Sans" font-size="64.0" fill="#535353" transform="matrix(1.00, 0.00, -0.00, -1.00, 817.5, 256.4)">o</text><text xml:space="preserve" font-family="GillSans-Light,Gill Sans" font-size="64.0" fill="#535353" transform="matrix(1.00, 0.00, -0.00, -1.00, 852.2, 256.4)">i</text><text xml:space="preserve" font-family="GillSans-Light,Gill Sans" font-size="64.0" fill="#535353" transform="matrix(1.00, 0.00, -0.00, -1.00, 864.3, 256.4)">n</text><text xml:space="preserve" font-family="GillSans-Light,Gill Sans" font-size="64.0" fill="#535353" transform="matrix(1.00, 0.00, -0.00, -1.00, 895.6, 256.4)">t</text><text xml:space="preserve" font-family="GillSans-Light,Gill Sans" font-size="64.0" fill="#535353" transform="matrix(1.00, 0.00, -0.00, -1.00, 914.9, 256.4)"> </text><text xml:space="preserve" font-family="GillSans-Light,Gill Sans" font-size="64.0" fill="#535353" transform="matrix(1.00, 0.00, -0.00, -1.00, 932.7, 256.4)">r</text><text xml:space="preserve" font-family="GillSans-Light,Gill Sans" font-size="64.0" fill="#535353" transform="matrix(1.00, 0.00, -0.00, -1.00, 954.0, 256.4)">o</text><text xml:space="preserve" font-family="GillSans-Light,Gill Sans" font-size="64.0" fill="#535353" transform="matrix(1.00, 0.00, -0.00, -1.00, 988.7, 256.4)">u</text><text xml:space="preserve" font-family="GillSans-Light,Gill Sans" font-size="64.0" fill="#535353" transform="matrix(1.00, 0.00, -0.00, -1.00, 1020.1, 256.4)">n</text><text xml:space="preserve" font-family="GillSans-Light,Gill Sans" font-size="64.0" fill="#535353" transform="matrix(1.00, 0.00, -0.00, -1.00, 1051.5, 256.4)">d</text><text xml:space="preserve" font-family="GillSans-Light,Gill Sans" font-size="64.0" fill="#535353" transform="matrix(1.00, 0.00, -0.00, -1.00, 1084.1, 256.4)">i</text><text xml:space="preserve" font-family="GillSans-Light,Gill Sans" font-size="64.0" fill="#535353" transform="matrix(1.00, 0.00, -0.00, -1.00, 1096.1, 256.4)">n</text><text xml:space="preserve" font-family="GillSans-Light,Gill Sans" font-size="64.0" fill="#535353" transform="matrix(1.00, 0.00, -0.00, -1.00, 1127.5, 256.4)">g</text><text xml:space="preserve" font-family="GillSans-Light,Gill Sans" font-size="64.0" fill="#535353" transform="matrix(1.00, 0.00, -0.00, -1.00, 1154.8, 256.4)"> </text><text xml:space="preserve" font-family="GillSans-Light,Gill Sans" font-size="64.0" fill="#535353" transform="matrix(1.00, 0.00, -0.00, -1.00, 1172.6, 256.4)">e</text><text xml:space="preserve" font-family="GillSans-Light,Gill Sans" font-size="64.0" fill="#535353" transform="matrix(1.00, 0.00, -0.00, -1.00, 1203.2, 256.4)">r</text><text xml:space="preserve" font-family="GillSans-Light,Gill Sans" font-size="64.0" fill="#535353" transform="matrix(1.00, 0.00, -0.00, -1.00, 1226.2, 256.4)">r</text><text xml:space="preserve" font-family="GillSans-Light,Gill Sans" font-size="64.0" fill="#535353" transform="matrix(1.00, 0.00, -0.00, -1.00, 1247.5, 256.4)">o</text><text xml:space="preserve" font-family="GillSans-Light,Gill Sans" font-size="64.0" fill="#535353" transform="matrix(1.00, 0.00, -0.00, -1.00, 1282.2, 256.4)">r</text><text xml:space="preserve" font-family="GillSans-Light,Gill Sans" font-size="64.0" fill="#535353" transform="matrix(1.00, 0.00, -0.00, -1.00, 1306.0, 256.4)">s</text></g></svg>