<?xml version="1.0" encoding="UTF-8" standalone="no"?><svg xmlns="http://www.w3.org/2000/svg" xmlns:xlink="http://www.w3.org/1999/xlink" clip-rule="evenodd" stroke-miterlimit="10" viewBox="0 0 415 96"><desc>SVG generated by Keynote</desc><defs></defs><g transform="matrix(1.00, 0.00, -0.00, -1.00, 0.0, 96.0)"><text xml:space="preserve" font-family="GillSans-Light,Gill Sans" font-size="100.0" fill="#535353" transform="matrix(1.00, 0.00, -0.00, -1.00, -3.4, 24.9)">C</text><text xml:space="preserve" font-family="GillSans-Light,Gill Sans" font-size="100.0" fill="#535353" transform="matrix(1.00, 0.00, -0.00, -1.00, 64.2, 24.9)">h</text><text xml:space="preserve" font-family="GillSans-Light,Gill Sans" font-size="100.0" fill="#535353" transform="matrix(1.00, 0.00, -0.00, -1.00, 113.3, 24.9)">a</text><text xml:space="preserve" font-family="GillSans-Light,Gill Sans" font-size="100.0" fill="#535353" transform="matrix(1.00, 0.00, -0.00, -1.00, 155.9, 24.9)">l</text><text xml:space="preserve" font-family="GillSans-Light,Gill Sans" font-size="100.0" fill="#535353" transform="matrix(1.00, 0.00, -0.00, -1.00, 174.7, 24.9)">l</text><text xml:space="preserve" font-family="GillSans-Light,Gill Sans" font-size="100.0" fill="#535353" transform="matrix(1.00, 0.00, -0.00, -1.00, 193.5, 24.9)">e</text><text xml:space="preserve" font-family="GillSans-Light,Gill Sans" font-size="100.0" fill="#535353" transform="matrix(1.00, 0.00, -0.00, -1.00, 241.4, 24.9)">n</text><text xml:space="preserve" font-family="GillSans-Light,Gill Sans" font-size="100.0" fill="#535353" transform="matrix(1.00, 0.00, -0.00, -1.00, 290.5, 24.9)">g</text><text xml:space="preserve" font-family="GillSans-Light,Gill Sans" font-size="100.0" fill="#535353" transform="matrix(1.00, 0.00, -0.00, -1.00, 333.1, 24.9)">e</text><text xml:space="preserve" font-family="GillSans-Light,Gill Sans" font-size="100.0" fill="#535353" transform="matrix(1.00, 0.00, -0.00, -1.00, 381.0, 24.9)">s</text></g></svg>