<?xml version="1.0" encoding="UTF-8" standalone="no"?><svg xmlns="http://www.w3.org/2000/svg" xmlns:xlink="http://www.w3.org/1999/xlink" clip-rule="evenodd" stroke-miterlimit="10" viewBox="0 0 1920 1080"><desc>SVG generated by Keynote</desc><defs></defs><g transform="matrix(1.00, 0.00, -0.00, -1.00, 0.0, 1080.0)"><g><clipPath id="clip0x608000eade60"><path d="M 0.0 1080.0 L 1920.0 1080.0 L 1920.0 0.0 L 0.0 0.0 Z M 0.0 1080.0 "></path></clipPath><g clip-path="url(#clip0x608000eade60)"><image xlink:href="../../D5727BE2-F369-4C75-81CE-5937ECEBC72D/assets/73FF40802D6D8C56B1DC83BECE6F24F8.jpeg" width="3840.00" height="2160.00" transform="matrix(0.50, 0.00, -0.00, -0.50, 0.0, 1080.0)"></image></g></g><text xml:space="preserve" font-family="GillSans-Light,Gill Sans" font-size="100.0" fill="#535353" transform="matrix(1.00, 0.00, -0.00, -1.00, 785.6, 883.9)">L</text><text xml:space="preserve" font-family="GillSans-Light,Gill Sans" font-size="100.0" fill="#535353" transform="matrix(1.00, 0.00, -0.00, -1.00, 832.5, 883.9)">e</text><text xml:space="preserve" font-family="GillSans-Light,Gill Sans" font-size="100.0" fill="#535353" transform="matrix(1.00, 0.00, -0.00, -1.00, 880.4, 883.9)">f</text><text xml:space="preserve" font-family="GillSans-Light,Gill Sans" font-size="100.0" fill="#535353" transform="matrix(1.00, 0.00, -0.00, -1.00, 904.5, 883.9)">t</text><text xml:space="preserve" font-family="GillSans-Light,Gill Sans" font-size="100.0" fill="#535353" transform="matrix(1.00, 0.00, -0.00, -1.00, 934.6, 883.9)"> </text><text xml:space="preserve" font-family="GillSans-Light,Gill Sans" font-size="100.0" fill="#535353" transform="matrix(1.00, 0.00, -0.00, -1.00, 962.4, 883.9)">S</text><text xml:space="preserve" font-family="GillSans-Light,Gill Sans" font-size="100.0" fill="#535353" transform="matrix(1.00, 0.00, -0.00, -1.00, 1009.3, 883.9)">u</text><text xml:space="preserve" font-family="GillSans-Light,Gill Sans" font-size="100.0" fill="#535353" transform="matrix(1.00, 0.00, -0.00, -1.00, 1058.4, 883.9)">m</text><image xlink:href="../../07B17C58-1D4F-466D-AC69-B6CFC83B0397/assets/198CDD0CE357E207C650F01E595AC72E.png" width="500.00" height="400.00" transform="matrix(1.00, 0.00, -0.00, -1.00, 710.0, 510.3)"></image><image xlink:href="../../07B17C58-1D4F-466D-AC69-B6CFC83B0397/assets/03532CF8653CDD543248DEC272415A14.png" width="1164.00" height="51.00" transform="matrix(1.00, 0.00, -0.00, -1.00, 378.0, 712.0)"></image></g></svg>